<svg width="1316" height="2366" viewBox="0 0 1316 2366" fill="none" xmlns="http://www.w3.org/2000/svg">
<rect x="2" y="2" width="1312" height="2362" rx="18" stroke="black" stroke-width="4"/>
<line x1="1.08132e-07" y1="80.4468" x2="1316" y2="80.447" stroke="black" stroke-width="4"/>
<g clip-path="url(#clip0)">
<path d="M1259.42 39.7184C1259.29 39.1881 1259.03 38.7022 1258.66 38.3098C1258.29 37.9173 1257.83 37.6323 1257.32 37.4835C1255.45 37.0142 1248 37.0142 1248 37.0142C1248 37.0142 1240.55 37.0142 1238.68 37.5282C1238.17 37.677 1237.71 37.962 1237.34 38.3545C1236.97 38.7469 1236.71 39.2328 1236.58 39.7631C1236.24 41.7137 1236.07 43.6925 1236.08 45.6745C1236.07 47.6715 1236.24 49.6653 1236.58 51.6306C1236.72 52.1445 1236.99 52.6119 1237.36 52.9878C1237.73 53.3636 1238.18 53.6351 1238.68 53.7762C1240.55 54.2902 1248 54.2902 1248 54.2902C1248 54.2902 1255.45 54.2902 1257.32 53.7762C1257.83 53.6273 1258.29 53.3423 1258.66 52.9499C1259.03 52.5575 1259.29 52.0716 1259.42 51.5412C1259.76 49.6053 1259.92 47.6416 1259.92 45.6745C1259.93 43.6776 1259.76 41.6837 1259.42 39.7184V39.7184Z" stroke="black" stroke-width="2.5" stroke-linecap="round" stroke-linejoin="round"/>
<path d="M1245.56 49.3287L1251.79 45.6746L1245.56 42.0205V49.3287Z" stroke="black" stroke-width="2.5" stroke-linecap="round" stroke-linejoin="round"/>
</g>
<path d="M1118.92 53.7764C1123.7 53.7764 1127.58 49.774 1127.58 44.8367C1127.58 39.8994 1123.7 35.897 1118.92 35.897C1114.13 35.897 1110.25 39.8994 1110.25 44.8367C1110.25 49.774 1114.13 53.7764 1118.92 53.7764Z" stroke="black" stroke-width="3" stroke-linecap="round" stroke-linejoin="round"/>
<path d="M1129.75 56.0109L1125.04 51.1499" stroke="black" stroke-width="3" stroke-linecap="round" stroke-linejoin="round"/>
<g clip-path="url(#clip1)">
<path d="M1172.08 39.2492V57.1286L1179.67 52.6588L1188.33 57.1286L1195.92 52.6588V34.7793L1188.33 39.2492L1179.67 34.7793L1172.08 39.2492Z" stroke="black" stroke-width="3" stroke-linecap="round" stroke-linejoin="round"/>
<path d="M1179.67 34.7793V52.6588" stroke="black" stroke-width="3" stroke-linecap="round" stroke-linejoin="round"/>
<path d="M1188.33 39.249V57.1285" stroke="black" stroke-width="3" stroke-linecap="round" stroke-linejoin="round"/>
</g>
<ellipse cx="59.5" cy="45.8649" rx="4.5" ry="4.64178" fill="#181818"/>
<ellipse cx="79.5" cy="45.8649" rx="4.5" ry="4.64178" fill="#181818"/>
<ellipse cx="99.5" cy="45.8649" rx="4.5" ry="4.64178" fill="#181818"/>
<path d="M406.511 49.9793C405.441 49.9793 404.471 49.7493 403.601 49.2893C402.741 48.8193 402.061 48.1743 401.561 47.3543C401.071 46.5243 400.826 45.5893 400.826 44.5493C400.826 43.5093 401.071 42.5793 401.561 41.7593C402.061 40.9293 402.741 40.2843 403.601 39.8243C404.471 39.3543 405.446 39.1193 406.526 39.1193C407.436 39.1193 408.256 39.2793 408.986 39.5993C409.726 39.9193 410.346 40.3793 410.846 40.9793L409.286 42.4193C408.576 41.5993 407.696 41.1893 406.646 41.1893C405.996 41.1893 405.416 41.3343 404.906 41.6243C404.396 41.9043 403.996 42.2993 403.706 42.8093C403.426 43.3193 403.286 43.8993 403.286 44.5493C403.286 45.1993 403.426 45.7793 403.706 46.2893C403.996 46.7993 404.396 47.1993 404.906 47.4893C405.416 47.7693 405.996 47.9093 406.646 47.9093C407.696 47.9093 408.576 47.4943 409.286 46.6643L410.846 48.1043C410.346 48.7143 409.726 49.1793 408.986 49.4993C408.246 49.8193 407.421 49.9793 406.511 49.9793ZM417.064 49.9793C415.564 49.9793 414.394 49.5643 413.554 48.7343C412.724 47.9043 412.309 46.7193 412.309 45.1793V39.2993H414.739V45.0893C414.739 46.9693 415.519 47.9093 417.079 47.9093C417.839 47.9093 418.419 47.6843 418.819 47.2343C419.219 46.7743 419.419 46.0593 419.419 45.0893V39.2993H421.819V45.1793C421.819 46.7193 421.399 47.9043 420.559 48.7343C419.729 49.5643 418.564 49.9793 417.064 49.9793ZM430.911 49.7993L428.886 46.8743H428.766H426.651V49.7993H424.221V39.2993H428.766C429.696 39.2993 430.501 39.4543 431.181 39.7643C431.871 40.0743 432.401 40.5143 432.771 41.0843C433.141 41.6543 433.326 42.3293 433.326 43.1093C433.326 43.8893 433.136 44.5643 432.756 45.1343C432.386 45.6943 431.856 46.1243 431.166 46.4243L433.521 49.7993H430.911ZM430.866 43.1093C430.866 42.5193 430.676 42.0693 430.296 41.7593C429.916 41.4393 429.361 41.2793 428.631 41.2793H426.651V44.9393H428.631C429.361 44.9393 429.916 44.7793 430.296 44.4593C430.676 44.1393 430.866 43.6893 430.866 43.1093ZM437.279 41.2793H433.919V39.2993H443.069V41.2793H439.709V49.7993H437.279V41.2793ZM450.764 47.5493H445.889L444.959 49.7993H442.469L447.149 39.2993H449.549L454.244 49.7993H451.694L450.764 47.5493ZM449.999 45.7043L448.334 41.6843L446.669 45.7043H449.999ZM455.334 39.2993H457.764V49.7993H455.334V39.2993ZM469.886 39.2993V49.7993H467.891L462.656 43.4243V49.7993H460.256V39.2993H462.266L467.486 45.6743V39.2993H469.886ZM481.643 49.9793C480.573 49.9793 479.603 49.7493 478.733 49.2893C477.873 48.8193 477.193 48.1743 476.693 47.3543C476.203 46.5243 475.958 45.5893 475.958 44.5493C475.958 43.5093 476.203 42.5793 476.693 41.7593C477.193 40.9293 477.873 40.2843 478.733 39.8243C479.603 39.3543 480.578 39.1193 481.658 39.1193C482.568 39.1193 483.388 39.2793 484.118 39.5993C484.858 39.9193 485.478 40.3793 485.978 40.9793L484.418 42.4193C483.708 41.5993 482.828 41.1893 481.778 41.1893C481.128 41.1893 480.548 41.3343 480.038 41.6243C479.528 41.9043 479.128 42.2993 478.838 42.8093C478.558 43.3193 478.418 43.8993 478.418 44.5493C478.418 45.1993 478.558 45.7793 478.838 46.2893C479.128 46.7993 479.528 47.1993 480.038 47.4893C480.548 47.7693 481.128 47.9093 481.778 47.9093C482.828 47.9093 483.708 47.4943 484.418 46.6643L485.978 48.1043C485.478 48.7143 484.858 49.1793 484.118 49.4993C483.378 49.8193 482.553 49.9793 481.643 49.9793ZM494.329 47.5493H489.454L488.524 49.7993H486.034L490.714 39.2993H493.114L497.809 49.7993H495.259L494.329 47.5493ZM493.564 45.7043L491.899 41.6843L490.234 45.7043H493.564ZM498.898 39.2993H501.328V47.8193H506.593V49.7993H498.898V39.2993ZM507.951 39.2993H510.381V47.8193H515.646V49.7993H507.951V39.2993Z" fill="black"/>
<rect x="1.5" y="-1.5" width="131" height="28.4599" rx="14.2299" transform="matrix(1 0 0 -1 392 57.7505)" stroke="black" stroke-width="3"/>
<path d="M329.614 47.8193V49.7993H321.679V48.2243L325.729 44.3993C326.159 43.9893 326.449 43.6393 326.599 43.3493C326.749 43.0493 326.824 42.7543 326.824 42.4643C326.824 42.0443 326.679 41.7243 326.389 41.5043C326.109 41.2743 325.694 41.1593 325.144 41.1593C324.684 41.1593 324.269 41.2493 323.899 41.4293C323.529 41.5993 323.219 41.8593 322.969 42.2093L321.199 41.0693C321.609 40.4593 322.174 39.9843 322.894 39.6443C323.614 39.2943 324.439 39.1193 325.369 39.1193C326.149 39.1193 326.829 39.2493 327.409 39.5093C327.999 39.7593 328.454 40.1193 328.774 40.5893C329.104 41.0493 329.269 41.5943 329.269 42.2243C329.269 42.7943 329.149 43.3293 328.909 43.8293C328.669 44.3293 328.204 44.8993 327.514 45.5393L325.099 47.8193H329.614ZM335.087 49.9793C334.217 49.9793 333.442 49.7643 332.762 49.3343C332.082 48.9043 331.547 48.2843 331.157 47.4743C330.777 46.6543 330.587 45.6793 330.587 44.5493C330.587 43.4193 330.777 42.4493 331.157 41.6393C331.547 40.8193 332.082 40.1943 332.762 39.7643C333.442 39.3343 334.217 39.1193 335.087 39.1193C335.957 39.1193 336.732 39.3343 337.412 39.7643C338.092 40.1943 338.622 40.8193 339.002 41.6393C339.392 42.4493 339.587 43.4193 339.587 44.5493C339.587 45.6793 339.392 46.6543 339.002 47.4743C338.622 48.2843 338.092 48.9043 337.412 49.3343C336.732 49.7643 335.957 49.9793 335.087 49.9793ZM335.087 47.9243C335.727 47.9243 336.227 47.6493 336.587 47.0993C336.957 46.5493 337.142 45.6993 337.142 44.5493C337.142 43.3993 336.957 42.5493 336.587 41.9993C336.227 41.4493 335.727 41.1743 335.087 41.1743C334.457 41.1743 333.957 41.4493 333.587 41.9993C333.227 42.5493 333.047 43.3993 333.047 44.5493C333.047 45.6993 333.227 46.5493 333.587 47.0993C333.957 47.6493 334.457 47.9243 335.087 47.9243ZM348.525 47.8193V49.7993H340.59V48.2243L344.64 44.3993C345.07 43.9893 345.36 43.6393 345.51 43.3493C345.66 43.0493 345.735 42.7543 345.735 42.4643C345.735 42.0443 345.59 41.7243 345.3 41.5043C345.02 41.2743 344.605 41.1593 344.055 41.1593C343.595 41.1593 343.18 41.2493 342.81 41.4293C342.44 41.5993 342.13 41.8593 341.88 42.2093L340.11 41.0693C340.52 40.4593 341.085 39.9843 341.805 39.6443C342.525 39.2943 343.35 39.1193 344.28 39.1193C345.06 39.1193 345.74 39.2493 346.32 39.5093C346.91 39.7593 347.365 40.1193 347.685 40.5893C348.015 41.0493 348.18 41.5943 348.18 42.2243C348.18 42.7943 348.06 43.3293 347.82 43.8293C347.58 44.3293 347.115 44.8993 346.425 45.5393L344.01 47.8193H348.525ZM353.577 39.2993V49.7993H351.147V41.2493H349.047V39.2993H353.577Z" fill="black"/>
<rect x="1.5" y="-1.5" width="80" height="28.4599" rx="14.2299" transform="matrix(1 0 0 -1 297 57.7505)" stroke="black" stroke-width="3"/>
<path d="M564.513 47.8493V49.7993H556.383V39.2993H564.318V41.2493H558.798V43.5293H563.673V45.4193H558.798V47.8493H564.513ZM572.959 49.7993L570.424 46.1543L567.934 49.7993H565.144L569.029 44.4593L565.339 39.2993H568.099L570.514 42.7043L572.884 39.2993H575.509L571.849 44.3693L575.764 49.7993H572.959ZM586.345 39.2993V49.7993H583.915V45.4943H579.145V49.7993H576.715V39.2993H579.145V43.4393H583.915V39.2993H586.345ZM588.829 39.2993H591.259V49.7993H588.829V39.2993ZM601.461 44.3393C602.061 44.5293 602.531 44.8493 602.871 45.2993C603.211 45.7393 603.381 46.2843 603.381 46.9343C603.381 47.8543 603.021 48.5643 602.301 49.0643C601.591 49.5543 600.551 49.7993 599.181 49.7993H593.751V39.2993H598.881C600.161 39.2993 601.141 39.5443 601.821 40.0343C602.511 40.5243 602.856 41.1893 602.856 42.0293C602.856 42.5393 602.731 42.9943 602.481 43.3943C602.241 43.7943 601.901 44.1093 601.461 44.3393ZM596.166 41.1293V43.6043H598.581C599.181 43.6043 599.636 43.4993 599.946 43.2893C600.256 43.0793 600.411 42.7693 600.411 42.3593C600.411 41.9493 600.256 41.6443 599.946 41.4443C599.636 41.2343 599.181 41.1293 598.581 41.1293H596.166ZM599.001 47.9693C599.641 47.9693 600.121 47.8643 600.441 47.6543C600.771 47.4443 600.936 47.1193 600.936 46.6793C600.936 45.8093 600.291 45.3743 599.001 45.3743H596.166V47.9693H599.001ZM605.221 39.2993H607.651V49.7993H605.221V39.2993ZM612.317 41.2793H608.957V39.2993H618.107V41.2793H614.747V49.7993H612.317V41.2793ZM619.415 39.2993H621.845V49.7993H619.415V39.2993ZM629.422 49.9793C628.332 49.9793 627.347 49.7443 626.467 49.2743C625.597 48.8043 624.912 48.1593 624.412 47.3393C623.922 46.5093 623.677 45.5793 623.677 44.5493C623.677 43.5193 623.922 42.5943 624.412 41.7743C624.912 40.9443 625.597 40.2943 626.467 39.8243C627.347 39.3543 628.332 39.1193 629.422 39.1193C630.512 39.1193 631.492 39.3543 632.362 39.8243C633.232 40.2943 633.917 40.9443 634.417 41.7743C634.917 42.5943 635.167 43.5193 635.167 44.5493C635.167 45.5793 634.917 46.5093 634.417 47.3393C633.917 48.1593 633.232 48.8043 632.362 49.2743C631.492 49.7443 630.512 49.9793 629.422 49.9793ZM629.422 47.9093C630.042 47.9093 630.602 47.7693 631.102 47.4893C631.602 47.1993 631.992 46.7993 632.272 46.2893C632.562 45.7793 632.707 45.1993 632.707 44.5493C632.707 43.8993 632.562 43.3193 632.272 42.8093C631.992 42.2993 631.602 41.9043 631.102 41.6243C630.602 41.3343 630.042 41.1893 629.422 41.1893C628.802 41.1893 628.242 41.3343 627.742 41.6243C627.242 41.9043 626.847 42.2993 626.557 42.8093C626.277 43.3193 626.137 43.8993 626.137 44.5493C626.137 45.1993 626.277 45.7793 626.557 46.2893C626.847 46.7993 627.242 47.1993 627.742 47.4893C628.242 47.7693 628.802 47.9093 629.422 47.9093ZM646.623 39.2993V49.7993H644.628L639.393 43.4243V49.7993H636.993V39.2993H639.003L644.223 45.6743V39.2993H646.623Z" fill="black"/>
<rect x="1.5" y="-1.5" width="124" height="28.4599" rx="14.2299" transform="matrix(1 0 0 -1 538 57.7505)" stroke="black" stroke-width="3"/>
<path d="M703.966 49.7993L703.951 43.4993L700.861 48.6893H699.766L696.691 43.6343V49.7993H694.411V39.2993H696.421L700.351 45.8243L704.221 39.2993H706.216L706.246 49.7993H703.966ZM716.867 47.8493V49.7993H708.737V39.2993H716.672V41.2493H711.152V43.5293H716.027V45.4193H711.152V47.8493H716.867ZM718.8 39.2993H723.57C724.71 39.2993 725.715 39.5193 726.585 39.9593C727.465 40.3893 728.145 40.9993 728.625 41.7893C729.115 42.5793 729.36 43.4993 729.36 44.5493C729.36 45.5993 729.115 46.5193 728.625 47.3093C728.145 48.0993 727.465 48.7143 726.585 49.1543C725.715 49.5843 724.71 49.7993 723.57 49.7993H718.8V39.2993ZM723.45 47.8043C724.5 47.8043 725.335 47.5143 725.955 46.9343C726.585 46.3443 726.9 45.5493 726.9 44.5493C726.9 43.5493 726.585 42.7593 725.955 42.1793C725.335 41.5893 724.5 41.2943 723.45 41.2943H721.23V47.8043H723.45ZM731.193 39.2993H733.623V49.7993H731.193V39.2993ZM743.03 47.5493H738.155L737.225 49.7993H734.735L739.415 39.2993H741.815L746.51 49.7993H743.96L743.03 47.5493ZM742.265 45.7043L740.6 41.6843L738.935 45.7043H742.265Z" fill="black"/>
<rect x="1.5" y="-1.5" width="83" height="28.4599" rx="14.2299" transform="matrix(1 0 0 -1 677 57.7505)" stroke="black" stroke-width="3"/>
<path d="M803.834 39.2993C804.764 39.2993 805.569 39.4543 806.249 39.7643C806.939 40.0743 807.469 40.5143 807.839 41.0843C808.209 41.6543 808.394 42.3293 808.394 43.1093C808.394 43.8793 808.209 44.5543 807.839 45.1343C807.469 45.7043 806.939 46.1443 806.249 46.4543C805.569 46.7543 804.764 46.9043 803.834 46.9043H801.719V49.7993H799.289V39.2993H803.834ZM803.699 44.9243C804.429 44.9243 804.984 44.7693 805.364 44.4593C805.744 44.1393 805.934 43.6893 805.934 43.1093C805.934 42.5193 805.744 42.0693 805.364 41.7593C804.984 41.4393 804.429 41.2793 803.699 41.2793H801.719V44.9243H803.699ZM816.819 49.7993L814.794 46.8743H814.674H812.559V49.7993H810.129V39.2993H814.674C815.604 39.2993 816.409 39.4543 817.089 39.7643C817.779 40.0743 818.309 40.5143 818.679 41.0843C819.049 41.6543 819.234 42.3293 819.234 43.1093C819.234 43.8893 819.044 44.5643 818.664 45.1343C818.294 45.6943 817.764 46.1243 817.074 46.4243L819.429 49.7993H816.819ZM816.774 43.1093C816.774 42.5193 816.584 42.0693 816.204 41.7593C815.824 41.4393 815.269 41.2793 814.539 41.2793H812.559V44.9393H814.539C815.269 44.9393 815.824 44.7793 816.204 44.4593C816.584 44.1393 816.774 43.6893 816.774 43.1093ZM826.245 49.9793C825.155 49.9793 824.17 49.7443 823.29 49.2743C822.42 48.8043 821.735 48.1593 821.235 47.3393C820.745 46.5093 820.5 45.5793 820.5 44.5493C820.5 43.5193 820.745 42.5943 821.235 41.7743C821.735 40.9443 822.42 40.2943 823.29 39.8243C824.17 39.3543 825.155 39.1193 826.245 39.1193C827.335 39.1193 828.315 39.3543 829.185 39.8243C830.055 40.2943 830.74 40.9443 831.24 41.7743C831.74 42.5943 831.99 43.5193 831.99 44.5493C831.99 45.5793 831.74 46.5093 831.24 47.3393C830.74 48.1593 830.055 48.8043 829.185 49.2743C828.315 49.7443 827.335 49.9793 826.245 49.9793ZM826.245 47.9093C826.865 47.9093 827.425 47.7693 827.925 47.4893C828.425 47.1993 828.815 46.7993 829.095 46.2893C829.385 45.7793 829.53 45.1993 829.53 44.5493C829.53 43.8993 829.385 43.3193 829.095 42.8093C828.815 42.2993 828.425 41.9043 827.925 41.6243C827.425 41.3343 826.865 41.1893 826.245 41.1893C825.625 41.1893 825.065 41.3343 824.565 41.6243C824.065 41.9043 823.67 42.2993 823.38 42.8093C823.1 43.3193 822.96 43.8993 822.96 44.5493C822.96 45.1993 823.1 45.7793 823.38 46.2893C823.67 46.7993 824.065 47.1993 824.565 47.4893C825.065 47.7693 825.625 47.9093 826.245 47.9093ZM833.816 39.2993H838.586C839.726 39.2993 840.731 39.5193 841.601 39.9593C842.481 40.3893 843.161 40.9993 843.641 41.7893C844.131 42.5793 844.376 43.4993 844.376 44.5493C844.376 45.5993 844.131 46.5193 843.641 47.3093C843.161 48.0993 842.481 48.7143 841.601 49.1543C840.731 49.5843 839.726 49.7993 838.586 49.7993H833.816V39.2993ZM838.466 47.8043C839.516 47.8043 840.351 47.5143 840.971 46.9343C841.601 46.3443 841.916 45.5493 841.916 44.5493C841.916 43.5493 841.601 42.7593 840.971 42.1793C840.351 41.5893 839.516 41.2943 838.466 41.2943H836.246V47.8043H838.466ZM850.873 49.9793C849.373 49.9793 848.203 49.5643 847.363 48.7343C846.533 47.9043 846.118 46.7193 846.118 45.1793V39.2993H848.548V45.0893C848.548 46.9693 849.328 47.9093 850.888 47.9093C851.648 47.9093 852.228 47.6843 852.628 47.2343C853.028 46.7743 853.228 46.0593 853.228 45.0893V39.2993H855.628V45.1793C855.628 46.7193 855.208 47.9043 854.368 48.7343C853.538 49.5643 852.373 49.9793 850.873 49.9793ZM863.055 49.9793C861.985 49.9793 861.015 49.7493 860.145 49.2893C859.285 48.8193 858.605 48.1743 858.105 47.3543C857.615 46.5243 857.37 45.5893 857.37 44.5493C857.37 43.5093 857.615 42.5793 858.105 41.7593C858.605 40.9293 859.285 40.2843 860.145 39.8243C861.015 39.3543 861.99 39.1193 863.07 39.1193C863.98 39.1193 864.8 39.2793 865.53 39.5993C866.27 39.9193 866.89 40.3793 867.39 40.9793L865.83 42.4193C865.12 41.5993 864.24 41.1893 863.19 41.1893C862.54 41.1893 861.96 41.3343 861.45 41.6243C860.94 41.9043 860.54 42.2993 860.25 42.8093C859.97 43.3193 859.83 43.8993 859.83 44.5493C859.83 45.1993 859.97 45.7793 860.25 46.2893C860.54 46.7993 860.94 47.1993 861.45 47.4893C861.96 47.7693 862.54 47.9093 863.19 47.9093C864.24 47.9093 865.12 47.4943 865.83 46.6643L867.39 48.1043C866.89 48.7143 866.27 49.1793 865.53 49.4993C864.79 49.8193 863.965 49.9793 863.055 49.9793ZM871.103 41.2793H867.743V39.2993H876.893V41.2793H873.533V49.7993H871.103V41.2793Z" fill="black"/>
<rect x="1.5" y="-1.5" width="120" height="28.4599" rx="14.2299" transform="matrix(1 0 0 -1 775 57.7505)" stroke="black" stroke-width="3"/>
<path d="M934.43 39.2993H939.2C940.34 39.2993 941.345 39.5193 942.215 39.9593C943.095 40.3893 943.775 40.9993 944.255 41.7893C944.745 42.5793 944.99 43.4993 944.99 44.5493C944.99 45.5993 944.745 46.5193 944.255 47.3093C943.775 48.0993 943.095 48.7143 942.215 49.1543C941.345 49.5843 940.34 49.7993 939.2 49.7993H934.43V39.2993ZM939.08 47.8043C940.13 47.8043 940.965 47.5143 941.585 46.9343C942.215 46.3443 942.53 45.5493 942.53 44.5493C942.53 43.5493 942.215 42.7593 941.585 42.1793C940.965 41.5893 940.13 41.2943 939.08 41.2943H936.86V47.8043H939.08ZM954.953 47.8493V49.7993H946.823V39.2993H954.758V41.2493H949.238V43.5293H954.113V45.4193H949.238V47.8493H954.953ZM960.336 49.9793C959.506 49.9793 958.701 49.8693 957.921 49.6493C957.151 49.4193 956.531 49.1243 956.061 48.7643L956.886 46.9343C957.336 47.2643 957.871 47.5293 958.491 47.7293C959.111 47.9293 959.731 48.0293 960.351 48.0293C961.041 48.0293 961.551 47.9293 961.881 47.7293C962.211 47.5193 962.376 47.2443 962.376 46.9043C962.376 46.6543 962.276 46.4493 962.076 46.2893C961.886 46.1193 961.636 45.9843 961.326 45.8843C961.026 45.7843 960.616 45.6743 960.096 45.5543C959.296 45.3643 958.641 45.1743 958.131 44.9843C957.621 44.7943 957.181 44.4893 956.811 44.0693C956.451 43.6493 956.271 43.0893 956.271 42.3893C956.271 41.7793 956.436 41.2293 956.766 40.7393C957.096 40.2393 957.591 39.8443 958.251 39.5543C958.921 39.2643 959.736 39.1193 960.696 39.1193C961.366 39.1193 962.021 39.1993 962.661 39.3593C963.301 39.5193 963.861 39.7493 964.341 40.0493L963.591 41.8943C962.621 41.3443 961.651 41.0693 960.681 41.0693C960.001 41.0693 959.496 41.1793 959.166 41.3993C958.846 41.6193 958.686 41.9093 958.686 42.2693C958.686 42.6293 958.871 42.8993 959.241 43.0793C959.621 43.2493 960.196 43.4193 960.966 43.5893C961.766 43.7793 962.421 43.9693 962.931 44.1593C963.441 44.3493 963.876 44.6493 964.236 45.0593C964.606 45.4693 964.791 46.0243 964.791 46.7243C964.791 47.3243 964.621 47.8743 964.281 48.3743C963.951 48.8643 963.451 49.2543 962.781 49.5443C962.111 49.8343 961.296 49.9793 960.336 49.9793ZM966.452 39.2993H968.882V49.7993H966.452V39.2993ZM978.468 44.3843H980.688V48.6443C980.118 49.0743 979.458 49.4043 978.708 49.6343C977.958 49.8643 977.203 49.9793 976.443 49.9793C975.353 49.9793 974.373 49.7493 973.503 49.2893C972.633 48.8193 971.948 48.1743 971.448 47.3543C970.958 46.5243 970.713 45.5893 970.713 44.5493C970.713 43.5093 970.958 42.5793 971.448 41.7593C971.948 40.9293 972.638 40.2843 973.518 39.8243C974.398 39.3543 975.388 39.1193 976.488 39.1193C977.408 39.1193 978.243 39.2743 978.993 39.5843C979.743 39.8943 980.373 40.3443 980.883 40.9343L979.323 42.3743C978.573 41.5843 977.668 41.1893 976.608 41.1893C975.938 41.1893 975.343 41.3293 974.823 41.6093C974.303 41.8893 973.898 42.2843 973.608 42.7943C973.318 43.3043 973.173 43.8893 973.173 44.5493C973.173 45.1993 973.318 45.7793 973.608 46.2893C973.898 46.7993 974.298 47.1993 974.808 47.4893C975.328 47.7693 975.918 47.9093 976.578 47.9093C977.278 47.9093 977.908 47.7593 978.468 47.4593V44.3843ZM992.576 39.2993V49.7993H990.581L985.346 43.4243V49.7993H982.946V39.2993H984.956L990.176 45.6743V39.2993H992.576Z" fill="black"/>
<rect x="1.5" y="-1.5" width="105" height="28.4599" rx="14.2299" transform="matrix(1 0 0 -1 910 57.7505)" stroke="black" stroke-width="3"/>
<defs>
<clipPath id="clip0">
<rect width="26" height="26.8192" fill="white" transform="translate(1235 32.5444)"/>
</clipPath>
<clipPath id="clip1">
<rect width="26" height="26.8192" fill="white" transform="translate(1171 32.5444)"/>
</clipPath>
</defs>
</svg>
