<svg width="210" height="70" viewBox="0 0 210 70" fill="none" xmlns="http://www.w3.org/2000/svg">
<rect width="210" height="70" fill="black"/>
<path d="M88.9189 35.176C89.5589 35.3787 90.0602 35.72 90.4229 36.2C90.7855 36.6693 90.9669 37.2507 90.9669 37.944C90.9669 38.9253 90.5829 39.6827 89.8149 40.216C89.0575 40.7387 87.9482 41 86.4869 41H80.6949V29.8H86.1669C87.5322 29.8 88.5775 30.0613 89.3029 30.584C90.0389 31.1067 90.4069 31.816 90.4069 32.712C90.4069 33.256 90.2735 33.7413 90.0069 34.168C89.7509 34.5947 89.3882 34.9307 88.9189 35.176ZM83.2709 31.752V34.392H85.8469C86.4869 34.392 86.9722 34.28 87.3029 34.056C87.6335 33.832 87.7989 33.5013 87.7989 33.064C87.7989 32.6267 87.6335 32.3013 87.3029 32.088C86.9722 31.864 86.4869 31.752 85.8469 31.752H83.2709ZM86.2949 39.048C86.9775 39.048 87.4895 38.936 87.8309 38.712C88.1829 38.488 88.3589 38.1413 88.3589 37.672C88.3589 36.744 87.6709 36.28 86.2949 36.28H83.2709V39.048H86.2949ZM101.425 38.6H96.2252L95.2332 41H92.5772L97.5692 29.8H100.129L105.137 41H102.417L101.425 38.6ZM100.609 36.632L98.8333 32.344L97.0573 36.632H100.609ZM112.623 41.192C111.482 41.192 110.447 40.9467 109.519 40.456C108.602 39.9547 107.876 39.2667 107.343 38.392C106.82 37.5067 106.559 36.5093 106.559 35.4C106.559 34.2907 106.82 33.2987 107.343 32.424C107.876 31.5387 108.602 30.8507 109.519 30.36C110.447 29.8587 111.487 29.608 112.639 29.608C113.61 29.608 114.484 29.7787 115.263 30.12C116.052 30.4613 116.714 30.952 117.247 31.592L115.583 33.128C114.826 32.2533 113.887 31.816 112.767 31.816C112.074 31.816 111.455 31.9707 110.911 32.28C110.367 32.5787 109.94 33 109.631 33.544C109.332 34.088 109.183 34.7067 109.183 35.4C109.183 36.0933 109.332 36.712 109.631 37.256C109.94 37.8 110.367 38.2267 110.911 38.536C111.455 38.8347 112.074 38.984 112.767 38.984C113.887 38.984 114.826 38.5413 115.583 37.656L117.247 39.192C116.714 39.8427 116.052 40.3387 115.263 40.68C114.474 41.0213 113.594 41.192 112.623 41.192ZM124.197 36.6L122.693 38.168V41H120.117V29.8H122.693V35.032L127.653 29.8H130.533L125.893 34.792L130.805 41H127.781L124.197 36.6Z" fill="white"/>
</svg>
