<svg width="979" height="82" viewBox="0 0 979 82" fill="none" xmlns="http://www.w3.org/2000/svg">
<rect width="313" height="82" fill="black"/>
<rect x="333" width="313" height="82" fill="black"/>
<rect x="666" width="313" height="82" fill="black"/>
<path d="M131.91 40.08C133.11 40.46 134.05 41.1 134.73 42C135.41 42.88 135.75 43.97 135.75 45.27C135.75 47.11 135.03 48.53 133.59 49.53C132.17 50.51 130.09 51 127.35 51H116.49V30H126.75C129.31 30 131.27 30.49 132.63 31.47C134.01 32.45 134.7 33.78 134.7 35.46C134.7 36.48 134.45 37.39 133.95 38.19C133.47 38.99 132.79 39.62 131.91 40.08ZM121.32 33.66V38.61H126.15C127.35 38.61 128.26 38.4 128.88 37.98C129.5 37.56 129.81 36.94 129.81 36.12C129.81 35.3 129.5 34.69 128.88 34.29C128.26 33.87 127.35 33.66 126.15 33.66H121.32ZM126.99 47.34C128.27 47.34 129.23 47.13 129.87 46.71C130.53 46.29 130.86 45.64 130.86 44.76C130.86 43.02 129.57 42.15 126.99 42.15H121.32V47.34H126.99ZM145.609 34.62C148.109 34.62 150.029 35.22 151.369 36.42C152.709 37.6 153.379 39.39 153.379 41.79V51H148.999V48.99C148.119 50.49 146.479 51.24 144.079 51.24C142.839 51.24 141.759 51.03 140.839 50.61C139.939 50.19 139.249 49.61 138.769 48.87C138.289 48.13 138.049 47.29 138.049 46.35C138.049 44.85 138.609 43.67 139.729 42.81C140.869 41.95 142.619 41.52 144.979 41.52H148.699C148.699 40.5 148.389 39.72 147.769 39.18C147.149 38.62 146.219 38.34 144.979 38.34C144.119 38.34 143.269 38.48 142.429 38.76C141.609 39.02 140.909 39.38 140.329 39.84L138.649 36.57C139.529 35.95 140.579 35.47 141.799 35.13C143.039 34.79 144.309 34.62 145.609 34.62ZM145.249 48.09C146.049 48.09 146.759 47.91 147.379 47.55C147.999 47.17 148.439 46.62 148.699 45.9V44.25H145.489C143.569 44.25 142.609 44.88 142.609 46.14C142.609 46.74 142.839 47.22 143.299 47.58C143.779 47.92 144.429 48.09 145.249 48.09ZM165.591 51.24C163.871 51.24 162.321 50.89 160.941 50.19C159.581 49.47 158.511 48.48 157.731 47.22C156.971 45.96 156.591 44.53 156.591 42.93C156.591 41.33 156.971 39.9 157.731 38.64C158.511 37.38 159.581 36.4 160.941 35.7C162.321 34.98 163.871 34.62 165.591 34.62C167.291 34.62 168.771 34.98 170.031 35.7C171.311 36.4 172.241 37.41 172.821 38.73L169.191 40.68C168.351 39.2 167.141 38.46 165.561 38.46C164.341 38.46 163.331 38.86 162.531 39.66C161.731 40.46 161.331 41.55 161.331 42.93C161.331 44.31 161.731 45.4 162.531 46.2C163.331 47 164.341 47.4 165.561 47.4C167.161 47.4 168.371 46.66 169.191 45.18L172.821 47.16C172.241 48.44 171.311 49.44 170.031 50.16C168.771 50.88 167.291 51.24 165.591 51.24ZM182.328 44.67L180.078 46.89V51H175.398V28.74H180.078V41.34L186.918 34.86H192.498L185.778 41.7L193.098 51H187.428L182.328 44.67Z" fill="white"/>
<path d="M463.49 30H468.35V47.04H478.88V51H463.49V30ZM481.265 34.86H485.945V51H481.265V34.86ZM483.605 32.61C482.745 32.61 482.045 32.36 481.505 31.86C480.965 31.36 480.695 30.74 480.695 30C480.695 29.26 480.965 28.64 481.505 28.14C482.045 27.64 482.745 27.39 483.605 27.39C484.465 27.39 485.165 27.63 485.705 28.11C486.245 28.59 486.515 29.19 486.515 29.91C486.515 30.69 486.245 31.34 485.705 31.86C485.165 32.36 484.465 32.61 483.605 32.61ZM495.719 51.24C494.379 51.24 493.069 51.08 491.789 50.76C490.509 50.42 489.489 50 488.729 49.5L490.289 46.14C491.009 46.6 491.879 46.98 492.899 47.28C493.919 47.56 494.919 47.7 495.899 47.7C497.879 47.7 498.869 47.21 498.869 46.23C498.869 45.77 498.599 45.44 498.059 45.24C497.519 45.04 496.689 44.87 495.569 44.73C494.249 44.53 493.159 44.3 492.299 44.04C491.439 43.78 490.689 43.32 490.049 42.66C489.429 42 489.119 41.06 489.119 39.84C489.119 38.82 489.409 37.92 489.989 37.14C490.589 36.34 491.449 35.72 492.569 35.28C493.709 34.84 495.049 34.62 496.589 34.62C497.729 34.62 498.859 34.75 499.979 35.01C501.119 35.25 502.059 35.59 502.799 36.03L501.239 39.36C499.819 38.56 498.269 38.16 496.589 38.16C495.589 38.16 494.839 38.3 494.339 38.58C493.839 38.86 493.589 39.22 493.589 39.66C493.589 40.16 493.859 40.51 494.399 40.71C494.939 40.91 495.799 41.1 496.979 41.28C498.299 41.5 499.379 41.74 500.219 42C501.059 42.24 501.789 42.69 502.409 43.35C503.029 44.01 503.339 44.93 503.339 46.11C503.339 47.11 503.039 48 502.439 48.78C501.839 49.56 500.959 50.17 499.799 50.61C498.659 51.03 497.299 51.24 495.719 51.24ZM516.636 50.22C516.176 50.56 515.606 50.82 514.926 51C514.266 51.16 513.566 51.24 512.826 51.24C510.906 51.24 509.416 50.75 508.356 49.77C507.316 48.79 506.796 47.35 506.796 45.45V38.82H504.306V35.22H506.796V31.29H511.476V35.22H515.496V38.82H511.476V45.39C511.476 46.07 511.646 46.6 511.986 46.98C512.346 47.34 512.846 47.52 513.486 47.52C514.226 47.52 514.856 47.32 515.376 46.92L516.636 50.22Z" fill="white"/>
<path d="M807.75 30V51H803.76L793.29 38.25V51H788.49V30H792.51L802.95 42.75V30H807.75ZM828.199 42.99C828.199 43.05 828.169 43.47 828.109 44.25H815.899C816.119 45.25 816.639 46.04 817.459 46.62C818.279 47.2 819.299 47.49 820.519 47.49C821.359 47.49 822.099 47.37 822.739 47.13C823.399 46.87 824.009 46.47 824.569 45.93L827.059 48.63C825.539 50.37 823.319 51.24 820.399 51.24C818.579 51.24 816.969 50.89 815.569 50.19C814.169 49.47 813.089 48.48 812.329 47.22C811.569 45.96 811.189 44.53 811.189 42.93C811.189 41.35 811.559 39.93 812.299 38.67C813.059 37.39 814.089 36.4 815.389 35.7C816.709 34.98 818.179 34.62 819.799 34.62C821.379 34.62 822.809 34.96 824.089 35.64C825.369 36.32 826.369 37.3 827.089 38.58C827.829 39.84 828.199 41.31 828.199 42.99ZM819.829 38.16C818.769 38.16 817.879 38.46 817.159 39.06C816.439 39.66 815.999 40.48 815.839 41.52H823.789C823.629 40.5 823.189 39.69 822.469 39.09C821.749 38.47 820.869 38.16 819.829 38.16ZM841.135 51L837.595 46.05L833.935 51H828.835L835.045 42.87L829.045 34.86H834.295L837.715 39.57L841.225 34.86H846.205L840.205 42.75L846.445 51H841.135ZM859.127 50.22C858.667 50.56 858.097 50.82 857.417 51C856.757 51.16 856.057 51.24 855.317 51.24C853.397 51.24 851.907 50.75 850.847 49.77C849.807 48.79 849.287 47.35 849.287 45.45V38.82H846.797V35.22H849.287V31.29H853.967V35.22H857.987V38.82H853.967V45.39C853.967 46.07 854.137 46.6 854.477 46.98C854.837 47.34 855.337 47.52 855.977 47.52C856.717 47.52 857.347 47.32 857.867 46.92L859.127 50.22Z" fill="white"/>
</svg>
