<svg width="210" height="70" viewBox="0 0 210 70" fill="none" xmlns="http://www.w3.org/2000/svg">
<rect width="210" height="70" fill="black"/>
<path d="M87.7261 29.8H90.3181V38.888H95.9341V41H87.7261V29.8ZM98.5024 29.8H101.094V41H98.5024V29.8ZM108.552 41.192C107.667 41.192 106.808 41.0747 105.976 40.84C105.155 40.5947 104.494 40.28 103.992 39.896L104.872 37.944C105.352 38.296 105.923 38.5787 106.584 38.792C107.246 39.0053 107.907 39.112 108.568 39.112C109.304 39.112 109.848 39.0053 110.2 38.792C110.552 38.568 110.728 38.2747 110.728 37.912C110.728 37.6453 110.622 37.4267 110.408 37.256C110.206 37.0747 109.939 36.9307 109.608 36.824C109.288 36.7173 108.851 36.6 108.296 36.472C107.443 36.2693 106.744 36.0667 106.2 35.864C105.656 35.6613 105.187 35.336 104.792 34.888C104.408 34.44 104.216 33.8427 104.216 33.096C104.216 32.4453 104.392 31.8587 104.744 31.336C105.096 30.8027 105.624 30.3813 106.328 30.072C107.043 29.7627 107.912 29.608 108.936 29.608C109.651 29.608 110.35 29.6933 111.032 29.864C111.715 30.0347 112.312 30.28 112.824 30.6L112.024 32.568C110.99 31.9813 109.955 31.688 108.92 31.688C108.195 31.688 107.656 31.8053 107.304 32.04C106.963 32.2747 106.792 32.584 106.792 32.968C106.792 33.352 106.99 33.64 107.384 33.832C107.79 34.0133 108.403 34.1947 109.224 34.376C110.078 34.5787 110.776 34.7813 111.32 34.984C111.864 35.1867 112.328 35.5067 112.712 35.944C113.107 36.3813 113.304 36.9733 113.304 37.72C113.304 38.36 113.123 38.9467 112.76 39.48C112.408 40.0027 111.875 40.4187 111.16 40.728C110.446 41.0373 109.576 41.192 108.552 41.192ZM118.359 31.912H114.775V29.8H124.535V31.912H120.951V41H118.359V31.912Z" fill="white"/>
</svg>
