<svg width="210" height="70" viewBox="0 0 210 70" fill="none" xmlns="http://www.w3.org/2000/svg">
<rect x="0.5" y="0.5" width="209" height="69" fill="black" stroke="black"/>
<path d="M61.328 29.8H63.92V38.888H69.536V41H61.328V29.8ZM74.8418 41.128C73.9351 41.128 73.1191 40.9413 72.3938 40.568C71.6791 40.184 71.1191 39.656 70.7138 38.984C70.3084 38.312 70.1058 37.5493 70.1058 36.696C70.1058 35.8427 70.3084 35.08 70.7138 34.408C71.1191 33.736 71.6791 33.2133 72.3938 32.84C73.1191 32.456 73.9351 32.264 74.8418 32.264C75.7484 32.264 76.5591 32.456 77.2738 32.84C77.9884 33.2133 78.5484 33.736 78.9538 34.408C79.3591 35.08 79.5618 35.8427 79.5618 36.696C79.5618 37.5493 79.3591 38.312 78.9538 38.984C78.5484 39.656 77.9884 40.184 77.2738 40.568C76.5591 40.9413 75.7484 41.128 74.8418 41.128ZM74.8418 39.08C75.4818 39.08 76.0044 38.8667 76.4098 38.44C76.8258 38.0027 77.0338 37.4213 77.0338 36.696C77.0338 35.9707 76.8258 35.3947 76.4098 34.968C76.0044 34.5307 75.4818 34.312 74.8418 34.312C74.2018 34.312 73.6738 34.5307 73.2578 34.968C72.8418 35.3947 72.6338 35.9707 72.6338 36.696C72.6338 37.4213 72.8418 38.0027 73.2578 38.44C73.6738 38.8667 74.2018 39.08 74.8418 39.08ZM84.5615 32.264C85.8948 32.264 86.9188 32.584 87.6335 33.224C88.3482 33.8533 88.7055 34.808 88.7055 36.088V41H86.3695V39.928C85.9002 40.728 85.0255 41.128 83.7455 41.128C83.0842 41.128 82.5082 41.016 82.0175 40.792C81.5375 40.568 81.1695 40.2587 80.9135 39.864C80.6575 39.4693 80.5295 39.0213 80.5295 38.52C80.5295 37.72 80.8282 37.0907 81.4255 36.632C82.0335 36.1733 82.9668 35.944 84.2255 35.944H86.2095C86.2095 35.4 86.0442 34.984 85.7135 34.696C85.3828 34.3973 84.8868 34.248 84.2255 34.248C83.7668 34.248 83.3135 34.3227 82.8655 34.472C82.4282 34.6107 82.0548 34.8027 81.7455 35.048L80.8495 33.304C81.3188 32.9733 81.8788 32.7173 82.5295 32.536C83.1908 32.3547 83.8682 32.264 84.5615 32.264ZM84.3695 39.448C84.7962 39.448 85.1748 39.352 85.5055 39.16C85.8362 38.9573 86.0708 38.664 86.2095 38.28V37.4H84.4975C83.4735 37.4 82.9615 37.736 82.9615 38.408C82.9615 38.728 83.0842 38.984 83.3295 39.176C83.5855 39.3573 83.9322 39.448 84.3695 39.448ZM99.8263 29.128V41H97.4423V40.008C96.8236 40.7547 95.9276 41.128 94.7543 41.128C93.9436 41.128 93.2076 40.9467 92.5463 40.584C91.8956 40.2213 91.3836 39.704 91.0103 39.032C90.6369 38.36 90.4503 37.5813 90.4503 36.696C90.4503 35.8107 90.6369 35.032 91.0103 34.36C91.3836 33.688 91.8956 33.1707 92.5463 32.808C93.2076 32.4453 93.9436 32.264 94.7543 32.264C95.8529 32.264 96.7116 32.6107 97.3303 33.304V29.128H99.8263ZM95.1863 39.08C95.8156 39.08 96.3383 38.8667 96.7543 38.44C97.1703 38.0027 97.3783 37.4213 97.3783 36.696C97.3783 35.9707 97.1703 35.3947 96.7543 34.968C96.3383 34.5307 95.8156 34.312 95.1863 34.312C94.5463 34.312 94.0183 34.5307 93.6023 34.968C93.1863 35.3947 92.9783 35.9707 92.9783 36.696C92.9783 37.4213 93.1863 38.0027 93.6023 38.44C94.0183 38.8667 94.5463 39.08 95.1863 39.08ZM117.692 32.264C118.769 32.264 119.622 32.584 120.252 33.224C120.892 33.8533 121.212 34.8027 121.212 36.072V41H118.716V36.456C118.716 35.7733 118.572 35.2667 118.284 34.936C118.006 34.5947 117.606 34.424 117.084 34.424C116.497 34.424 116.033 34.616 115.692 35C115.35 35.3733 115.18 35.9333 115.18 36.68V41H112.684V36.456C112.684 35.1013 112.14 34.424 111.052 34.424C110.476 34.424 110.017 34.616 109.676 35C109.334 35.3733 109.164 35.9333 109.164 36.68V41H106.668V32.392H109.052V33.384C109.372 33.0213 109.761 32.744 110.22 32.552C110.689 32.36 111.201 32.264 111.756 32.264C112.364 32.264 112.913 32.3867 113.404 32.632C113.894 32.8667 114.289 33.2133 114.588 33.672C114.94 33.224 115.382 32.8773 115.916 32.632C116.46 32.3867 117.052 32.264 117.692 32.264ZM127.639 41.128C126.732 41.128 125.916 40.9413 125.191 40.568C124.476 40.184 123.916 39.656 123.511 38.984C123.105 38.312 122.903 37.5493 122.903 36.696C122.903 35.8427 123.105 35.08 123.511 34.408C123.916 33.736 124.476 33.2133 125.191 32.84C125.916 32.456 126.732 32.264 127.639 32.264C128.545 32.264 129.356 32.456 130.071 32.84C130.785 33.2133 131.345 33.736 131.751 34.408C132.156 35.08 132.359 35.8427 132.359 36.696C132.359 37.5493 132.156 38.312 131.751 38.984C131.345 39.656 130.785 40.184 130.071 40.568C129.356 40.9413 128.545 41.128 127.639 41.128ZM127.639 39.08C128.279 39.08 128.801 38.8667 129.207 38.44C129.623 38.0027 129.831 37.4213 129.831 36.696C129.831 35.9707 129.623 35.3947 129.207 34.968C128.801 34.5307 128.279 34.312 127.639 34.312C126.999 34.312 126.471 34.5307 126.055 34.968C125.639 35.3947 125.431 35.9707 125.431 36.696C125.431 37.4213 125.639 38.0027 126.055 38.44C126.471 38.8667 126.999 39.08 127.639 39.08ZM136.411 33.528C136.71 33.112 137.11 32.7973 137.611 32.584C138.123 32.3707 138.71 32.264 139.371 32.264V34.568C139.094 34.5467 138.907 34.536 138.811 34.536C138.096 34.536 137.536 34.7387 137.131 35.144C136.726 35.5387 136.523 36.136 136.523 36.936V41H134.027V32.392H136.411V33.528ZM149.209 36.728C149.209 36.76 149.193 36.984 149.161 37.4H142.649C142.766 37.9333 143.044 38.3547 143.481 38.664C143.918 38.9733 144.462 39.128 145.113 39.128C145.561 39.128 145.956 39.064 146.297 38.936C146.649 38.7973 146.974 38.584 147.273 38.296L148.601 39.736C147.79 40.664 146.606 41.128 145.049 41.128C144.078 41.128 143.22 40.9413 142.473 40.568C141.726 40.184 141.15 39.656 140.745 38.984C140.34 38.312 140.137 37.5493 140.137 36.696C140.137 35.8533 140.334 35.096 140.729 34.424C141.134 33.7413 141.684 33.2133 142.377 32.84C143.081 32.456 143.865 32.264 144.729 32.264C145.572 32.264 146.334 32.4453 147.017 32.808C147.7 33.1707 148.233 33.6933 148.617 34.376C149.012 35.048 149.209 35.832 149.209 36.728ZM144.745 34.152C144.18 34.152 143.705 34.312 143.321 34.632C142.937 34.952 142.702 35.3893 142.617 35.944H146.857C146.772 35.4 146.537 34.968 146.153 34.648C145.769 34.3173 145.3 34.152 144.745 34.152Z" fill="white"/>
</svg>
