<svg width="210" height="70" viewBox="0 0 210 70" fill="none" xmlns="http://www.w3.org/2000/svg">
<rect width="210" height="70" fill="black"/>
<path d="M92.7325 29.8V41H90.6045L85.0205 34.2V41H82.4605V29.8H84.6045L90.1725 36.6V29.8H92.7325ZM105.174 38.92V41H96.5024V29.8H104.966V31.88H99.0784V34.312H104.278V36.328H99.0784V38.92H105.174ZM115.303 41L112.599 37.112L109.943 41H106.967L111.111 35.304L107.175 29.8H110.119L112.695 33.432L115.223 29.8H118.023L114.119 35.208L118.295 41H115.303ZM122.625 31.912H119.041V29.8H128.801V31.912H125.217V41H122.625V31.912Z" fill="white"/>
</svg>
