<svg width="167" height="148" viewBox="0 0 167 148" fill="none" xmlns="http://www.w3.org/2000/svg">
<path d="M144.816 92.107C143.967 92.1039 143.121 92.0221 142.288 91.8626H142.153C141.476 91.726 140.811 91.5344 140.165 91.2897L139.794 91.1464C139.242 90.9261 138.708 90.6671 138.193 90.3712L137.637 90.0426C137.392 89.8825 137.224 89.773 137.114 89.6887C135.209 88.4544 133.697 86.7 132.758 84.6332C132.498 84.1046 132.276 83.5584 132.092 82.9986L132.017 82.7711C131.882 82.3918 131.775 82.0031 131.696 81.6083C131.646 81.4145 131.604 81.1785 131.562 80.9342V80.732H131.654L131.958 80.5887L131.545 80.6646V80.5466C131.397 79.6217 131.363 78.6823 131.444 77.7492C131.462 77.4021 131.499 77.0561 131.553 76.7128V76.5864C131.593 76.328 131.643 76.0668 131.705 75.8028L131.814 75.3478L131.865 75.1456C131.941 74.8591 132.034 74.5389 132.135 74.303C132.32 73.7454 132.545 73.2019 132.809 72.6768L132.969 72.3819C133.018 72.2771 133.074 72.1758 133.137 72.0786C133.238 71.8932 133.348 71.7247 133.449 71.5646C133.705 71.1622 133.986 70.7766 134.292 70.4102C134.552 70.0703 134.834 69.7467 135.134 69.4412L135.471 69.0958L135.64 68.9357L135.834 68.7587L136.188 69.0031L135.909 68.6913L136.112 68.5059L136.491 68.1942L136.567 68.1352C136.744 67.992 136.954 67.8319 137.165 67.6802L137.477 67.4696L138.033 67.1157L138.521 66.8376C138.656 66.7618 138.85 66.6607 139.086 66.5512L139.49 66.3658C139.752 66.2478 140.055 66.1298 140.392 66.0119L140.746 65.8855L140.965 65.8181L141.285 65.7254L141.496 66.1046L141.378 65.7001L141.74 65.6074C142.069 65.5232 142.381 65.4642 142.659 65.4136L143.055 65.3547L143.459 65.3041C143.594 65.3041 143.821 65.262 144.125 65.2451H144.234L144.344 65.6664V65.2451H144.748H145.254V65.3462V66.0877L145.304 65.7507V65.3715L145.355 65.6748V65.2536H145.456L145.557 65.6833V65.262H145.869H146.324H146.577L147.015 65.3209L147.638 65.4305L148.119 65.54L148.624 65.6748C148.708 65.6748 148.919 65.7591 149.231 65.8602C149.543 65.9613 149.77 66.0456 150.141 66.2057L150.52 66.3658L150.874 66.5427L151.455 66.8376L151.801 67.0398L152.062 67.1915L152.652 67.5875L152.466 67.9751L152.728 67.6381C154.418 68.717 155.791 70.2264 156.705 72.0111C157.034 72.6028 157.316 73.2198 157.547 73.8564C157.775 74.4451 157.955 75.0508 158.087 75.668C158.146 75.9094 158.191 76.1542 158.221 76.401C158.221 76.519 158.221 76.6286 158.28 76.7381L158.331 77.151C158.704 80.378 157.883 83.6301 156.022 86.2931C155.848 86.5634 155.656 86.8223 155.449 87.0683C155.205 87.3716 154.986 87.6244 154.809 87.8098L154.379 88.2479L154 88.6102L153.882 88.7198C152.607 89.8583 151.125 90.7421 149.517 91.3234L149.02 91.4835L148.607 91.6099L148.439 91.652L148.245 91.2728L148.355 91.6773L147.933 91.7784L147.386 91.8963L147.2 91.5003L147.276 91.9132L146.964 91.9637L146.728 91.1633L146.829 91.5593L146.888 91.9806L146.442 92.0396C145.902 92.0953 145.359 92.1178 144.816 92.107V92.107Z" fill="black"/>
<path d="M144.891 65.5654H145.734H145.936H146.113H146.307H146.484H146.61H146.779L147.428 65.6834H147.571H147.706H147.773H147.857H147.95L148.304 65.7761L148.877 65.953C149.172 66.0541 149.408 66.1384 149.719 66.29H149.795H149.871L150.09 66.3827L150.402 66.526H150.452L150.798 66.7113H150.84L150.933 66.7619L151.051 66.8293L151.253 66.9473H151.32L151.497 67.0568C151.693 67.1677 151.882 67.2915 152.062 67.4276L152.129 67.4781L152.222 67.5371C153.822 68.5751 155.123 70.0128 155.997 71.7079C156.325 72.2826 156.607 72.8828 156.839 73.5027C157.058 74.0756 157.232 74.6643 157.362 75.2637C157.421 75.4996 157.463 75.7439 157.497 75.9546V76.5191C157.519 76.6164 157.536 76.7149 157.547 76.814C157.547 76.814 157.547 76.873 157.547 76.9067C157.547 76.9404 157.547 77.1089 157.547 77.2185C157.912 80.3441 157.117 83.4949 155.314 86.0741C155.143 86.334 154.957 86.5844 154.758 86.8241C154.522 87.119 154.312 87.3549 154.143 87.5318L153.991 87.6919V87.734L153.865 87.852L153.814 87.9026L153.739 87.9868L153.629 88.0879L153.427 88.2817L153.3 88.3828C152.075 89.4929 150.644 90.3517 149.087 90.9106L148.902 90.978L148.607 91.0791L148.456 91.1213H148.397L148.211 91.1802H148.144H148H147.883H147.824L147.604 91.2392H147.537H147.453L147.057 91.3235H146.981H146.812H146.602H146.526H146.425H146.138C145.671 91.3731 145.201 91.3984 144.731 91.3993C143.905 91.3983 143.082 91.3193 142.271 91.1634H142.161C141.519 91.0328 140.888 90.8525 140.274 90.6241L139.912 90.4809C139.377 90.269 138.859 90.0184 138.361 89.731L138.285 89.6889L138.184 89.6299L138.024 89.5372L137.864 89.4361C137.662 89.3181 137.51 89.2086 137.392 89.1327C135.556 87.9404 134.095 86.2517 133.179 84.2626C132.925 83.7481 132.708 83.2158 132.531 82.67L132.455 82.451C132.331 82.0932 132.232 81.7272 132.16 81.3556C132.109 81.145 132.067 80.9091 132.025 80.6647C132.025 80.5973 132.025 80.5383 132.025 80.4709C132.025 80.5383 132.025 80.6141 132.025 80.6731V80.4962V80.4456V80.3782V80.3024C131.881 79.4027 131.844 78.4891 131.915 77.5808V77.5808C131.915 77.2606 131.974 76.932 132.025 76.6034C132.021 76.5642 132.021 76.5246 132.025 76.4854C132.025 76.2326 132.109 75.9799 132.168 75.7271L132.219 75.5249C132.219 75.5249 132.219 75.4659 132.219 75.4322C132.215 75.3929 132.215 75.3535 132.219 75.3142V75.2468C132.219 75.1963 132.219 75.1541 132.219 75.1036C132.295 74.834 132.379 74.5222 132.472 74.261C132.658 73.7159 132.88 73.1838 133.137 72.6685L133.205 72.5421L133.28 72.3904L133.449 72.104C133.55 71.9298 133.651 71.7613 133.752 71.5984C133.985 71.213 134.244 70.8442 134.527 70.4946V70.4946C134.768 70.174 135.03 69.87 135.311 69.5846V69.5846L135.631 69.256L135.791 69.0959L135.935 68.9611L136.019 68.8852L136.154 68.7673L136.221 68.7083L136.592 68.3965C136.777 68.2449 136.979 68.0932 137.173 67.95L137.477 67.7477L137.578 67.6803L137.645 67.6382L138.024 67.4023L138.269 67.259L138.462 67.1495L139.01 66.8714H139.052L139.28 66.7703L139.398 66.7113C139.65 66.6018 139.945 66.4838 140.24 66.3743L140.501 66.2816H140.577H140.628L140.771 66.2395L141.058 66.1553H141.142H141.209H141.26H141.319H141.428C141.732 66.0794 142.035 66.0204 142.271 65.9699H142.355H142.431H142.633H142.541H142.616H142.709H142.827H143.021L143.644 65.9193H144.487L144.891 65.5654ZM133.744 86.5039L133.845 86.6471L133.744 86.5039L133.693 86.428L133.752 86.5207L133.744 86.5039Z" fill="white"/>
<path d="M131.764 78.6006C131.764 80.8956 132.37 83.1499 133.519 85.1363C134.668 87.1227 136.321 88.771 138.311 89.9149C140.3 91.0587 142.556 91.6578 144.851 91.6516C147.146 91.6455 149.399 91.0343 151.382 89.8798C153.366 88.7252 155.009 87.0681 156.148 85.0756C157.287 83.083 157.88 80.8255 157.868 78.5305C157.855 76.2356 157.238 73.9845 156.079 72.0042C154.919 70.0238 153.257 68.3843 151.262 67.2509C152.935 68.2617 154.308 69.7019 155.237 71.4221C156.166 73.1423 156.617 75.0797 156.545 77.0334C156.545 83.9595 151.27 90.279 144.799 91.1553C151.27 90.3127 156.528 83.9595 156.545 77.0334C156.617 75.0797 156.166 73.1423 155.237 71.4221C154.308 69.7019 152.935 68.2617 151.262 67.2509C149.322 66.1654 147.14 65.5858 144.917 65.5657C142.584 65.5499 140.29 66.1589 138.272 67.3294C136.254 68.4999 134.586 70.1893 133.441 72.2222C132.338 74.1672 131.758 76.3647 131.756 78.6006" fill="#A8A8A8"/>
<path d="M156.544 77.051C156.544 83.9771 151.27 90.2966 144.799 91.1729C133.449 91.7374 129.127 79.4693 134.148 73.7228C139.634 67.4623 151.219 72.6864 151.843 81.7106C152.332 88.6367 147.259 90.3471 144.824 91.1729C151.295 90.3303 156.553 83.9771 156.57 77.051C156.642 75.0974 156.191 73.1599 155.262 71.4397C154.333 69.7195 152.96 68.2793 151.287 67.2685L150.621 66.9147L149.61 66.4681L149.054 66.2658L148.413 66.0636L147.967 65.9457L147.495 65.8361L147.124 65.7687L146.745 65.7098L146.425 65.6592H146.105H145.801H145.515H144.377H144.083H143.771H143.442L143.105 65.7013L142.675 65.7687C141.72 65.9317 140.785 66.1973 139.886 66.5608L139.212 66.8641C138.715 67.1091 138.236 67.3907 137.78 67.7067L137.055 68.2123C136.735 68.4566 136.322 68.7936 136.027 69.0548L135.345 69.7205C135.109 69.9901 134.789 70.3524 134.561 70.6305L133.98 71.4309C133.803 71.7258 133.55 72.1134 133.382 72.4168L132.935 73.3099C132.809 73.6217 132.632 74.043 132.514 74.3632L132.219 75.3406C132.143 75.6776 132.033 76.1158 131.975 76.4528L131.84 77.4976C131.84 77.8431 131.789 78.3402 131.789 78.652V79.722C131.856 80.2781 131.966 81.0281 132.076 81.5757L132.345 82.57C132.455 82.8902 132.598 83.3199 132.724 83.6317L133.137 84.5417C133.306 84.8366 133.516 85.241 133.685 85.5275L134.241 86.3701C134.452 86.6397 134.73 87.0105 134.957 87.2717L135.606 87.9626C135.876 88.2154 136.23 88.544 136.508 88.8052L137.215 89.3444C137.552 89.5719 138.058 89.8753 138.37 90.0859L139.035 90.4398L140.047 90.8864L140.594 91.0886L141.243 91.2908L141.69 91.4088L142.161 91.5183L142.532 91.5857L142.903 91.6447L143.232 91.6953H143.552H143.847H144.141H145.279H145.574H145.877H146.206L146.551 91.6531L146.981 91.5857C147.884 91.4359 148.768 91.1901 149.618 90.8527L150.284 90.5662C150.792 90.3313 151.285 90.0639 151.759 89.7657L152.483 89.277C152.803 89.0243 153.225 88.6957 153.528 88.4345L154.21 87.7772C154.455 87.5076 154.783 87.1453 155.053 86.8672L155.643 86.0836C155.82 85.7887 156.073 85.4011 156.25 85.0978L156.705 84.2046C156.831 83.8929 157.016 83.48 157.134 83.1598L157.446 82.1824C157.522 81.8538 157.64 81.4072 157.699 81.0786L157.842 80.0338C157.842 79.6462 157.909 79.1322 157.909 78.7447V77.6745C157.909 77.3375 157.825 76.8741 157.775 76.537L157.556 75.5259C157.463 75.1973 157.345 74.7676 157.235 74.4474L156.873 73.5037C156.721 73.2004 156.536 72.7875 156.376 72.4926L155.87 71.65C155.677 71.372 155.415 70.9928 155.213 70.7232L154.59 69.9817C154.337 69.7289 154.017 69.3834 153.747 69.1391L153.056 68.5493C152.526 68.1122 151.963 67.7177 151.371 67.3697C153.044 68.3804 154.417 69.8206 155.346 71.5408C156.275 73.261 156.726 75.1985 156.654 77.1521" fill="#A8A8A8"/>
<path d="M156.544 77.051C156.513 79.8396 155.691 82.5622 154.175 84.9024C152.658 87.2426 150.508 89.1043 147.975 90.2713L147.411 90.5746C138.74 94.223 129.101 84.3816 132.682 75.5259C135.547 68.4482 147.377 68.7262 151.354 77.961C153.452 82.8312 152.036 88.0132 147.984 90.2713C150.516 89.1043 152.666 87.2426 154.183 84.9024C155.7 82.5622 156.522 79.8396 156.553 77.051C156.625 75.0974 156.174 73.1599 155.245 71.4397C154.316 69.7195 152.943 68.2793 151.27 67.2685V67.2685C150.728 66.961 150.165 66.6935 149.584 66.4681L149.028 66.2658L148.388 66.0636L147.941 65.9457L147.47 65.8361L147.099 65.7687L146.72 65.7098L146.399 65.6592H146.079H145.776H145.489H144.352H144.057H143.745H143.417L143.08 65.7013L142.65 65.7687C141.694 65.9317 140.759 66.1973 139.861 66.5608L139.187 66.8641C138.689 67.1091 138.21 67.3907 137.754 67.7067L137.03 68.2123C136.71 68.4566 136.297 68.7936 136.002 69.0548L135.319 69.7205C135.083 69.9901 134.763 70.3524 134.536 70.6305L133.954 71.4309C133.777 71.7258 133.525 72.1134 133.356 72.4168L132.91 73.3099C132.783 73.6217 132.606 74.043 132.488 74.3632L132.193 75.3406C132.118 75.6776 132.008 76.1158 131.949 76.4528L131.814 77.4976C131.814 77.8431 131.764 78.3402 131.764 78.652V79.722C131.831 80.2781 131.941 81.0281 132.05 81.5757L132.32 82.57C132.429 82.8902 132.573 83.3199 132.699 83.6317L133.112 84.5417C133.28 84.8366 133.491 85.241 133.66 85.5275L134.216 86.3701C134.426 86.6397 134.704 87.0105 134.932 87.2717L135.581 87.9626C135.85 88.2154 136.204 88.544 136.482 88.8052L137.19 89.3444C137.527 89.5719 138.033 89.8753 138.344 90.0859L139.01 90.4398L140.021 90.8864L140.569 91.0886L141.218 91.2908L141.664 91.4088L142.136 91.5183L142.507 91.5857L142.877 91.6447L143.206 91.6953H143.526H143.821H144.116H145.254H145.548H145.852H146.18L146.526 91.6531L146.956 91.5857C147.858 91.4359 148.742 91.1901 149.593 90.8527L150.259 90.5662C150.767 90.3313 151.259 90.0639 151.733 89.7657L152.458 89.277C152.778 89.0243 153.199 88.6957 153.502 88.4345L154.185 87.7772C154.429 87.5076 154.758 87.1453 155.028 86.8672L155.617 86.0836C155.794 85.7887 156.047 85.4011 156.224 85.0978L156.679 84.2046C156.805 83.8929 156.991 83.48 157.109 83.1598L157.421 82.1824C157.496 81.8538 157.614 81.4072 157.673 81.0786L157.817 80.0338C157.817 79.6462 157.884 79.1322 157.884 78.7447V77.6745C157.884 77.3375 157.8 76.8741 157.749 76.537L157.53 75.5259C157.437 75.1973 157.319 74.7676 157.21 74.4474L156.848 73.5037C156.696 73.2004 156.511 72.7875 156.35 72.4926L155.845 71.65C155.651 71.372 155.39 70.9928 155.188 70.7232L154.564 69.9817C154.311 69.7289 153.991 69.3834 153.722 69.1391L153.031 68.5493C152.501 68.1122 151.938 67.7177 151.346 67.3697C153.019 68.3804 154.391 69.8206 155.32 71.5408C156.249 73.261 156.701 75.1985 156.629 77.1521" fill="#A3A3A3"/>
<path d="M132.303 82.3509C129.775 73.2847 138.1 66.9905 146.459 71.6585C152.601 75.0878 155.356 84.2383 149.829 89.2517C151.853 87.918 153.52 86.1085 154.683 83.9816C155.847 81.8547 156.471 79.4751 156.502 77.051C156.575 75.0974 156.123 73.1599 155.194 71.4397C154.265 69.7195 152.893 68.2793 151.219 67.2685L150.554 66.9147L149.542 66.4681L148.986 66.2658L148.346 66.0636L147.899 65.9457L147.428 65.8361L147.057 65.7687L146.678 65.7098L146.357 65.6592H146.037H145.734H145.447H144.31H144.015H143.703H143.375L143.038 65.7013L142.608 65.7687C141.653 65.9317 140.717 66.1973 139.819 66.5608L139.145 66.8641C138.647 67.1091 138.168 67.3907 137.712 67.7067L136.988 68.2123C136.668 68.4566 136.255 68.7936 135.96 69.0548L135.277 69.7205C135.041 69.9901 134.721 70.3524 134.494 70.6305L133.912 71.4309C133.735 71.7258 133.483 72.1134 133.314 72.4168L132.868 73.3099C132.741 73.6217 132.564 74.043 132.446 74.3632L132.151 75.3406C132.076 75.6776 131.966 76.1158 131.907 76.4528L131.772 77.4976C131.772 77.8431 131.722 78.3402 131.722 78.652V79.722C131.789 80.2781 131.899 81.0281 132.008 81.5757L132.278 82.57L132.556 83.4126L132.354 82.4183C132.354 82.4183 132.354 82.4183 132.354 82.3678" fill="#9E9E9E"/>
<path d="M156.545 77.0501C156.514 79.4742 155.889 81.8537 154.726 83.9807C153.563 86.1076 151.896 87.9171 149.872 89.2508L149.341 89.7058C147.832 90.8349 143.704 93.0762 137.915 89.7058C138.252 89.9081 138.699 90.1524 139.044 90.3378L140.055 90.7844L140.603 90.9866L141.252 91.1888L141.698 91.3068L142.17 91.4163L142.541 91.4837L142.912 91.5427L143.24 91.5933H143.56H143.855H144.15H145.288H145.583H145.886H146.215L146.56 91.5511L146.99 91.4837C147.892 91.3338 148.777 91.0881 149.627 90.7507L150.293 90.4642C150.801 90.2293 151.294 89.9619 151.767 89.6637L152.492 89.175C152.812 88.9222 153.233 88.5936 153.537 88.3324L154.219 87.6752C154.464 87.4056 154.792 87.0432 155.062 86.7652L155.652 85.9816C155.829 85.6867 156.081 85.2991 156.258 84.9957L156.713 84.1026C156.84 83.7908 157.025 83.378 157.143 83.0578L157.455 82.0804C157.531 81.7518 157.649 81.3052 157.708 80.9766L157.851 79.9318C157.851 79.5442 157.918 79.0302 157.918 78.6426V77.5725C157.918 77.2355 157.834 76.772 157.783 76.435L157.564 75.4239C157.472 75.0953 157.354 74.6656 157.244 74.3454L156.882 73.4017C156.73 73.0983 156.545 72.6855 156.385 72.3906L155.879 71.548C155.685 71.2699 155.424 70.8907 155.222 70.6211L154.598 69.8796C154.346 69.6268 154.025 69.2814 153.756 69.037L153.065 68.4472C152.535 68.0101 151.972 67.6156 151.38 67.2676C153.053 68.2783 154.426 69.7186 155.355 71.4388C156.284 73.159 156.735 75.0964 156.663 77.0501" fill="#9E9E9E"/>
<path d="M131.915 80.6658C130.685 70.2598 141.31 66.5439 148.54 72.4336C152.247 75.467 155.558 82.3509 151.303 88.1901C152.921 86.8148 154.226 85.1092 155.13 83.188C156.034 81.2667 156.516 79.1742 156.544 77.051C156.617 75.0974 156.165 73.1599 155.236 71.4397C154.307 69.7195 152.935 68.2793 151.261 67.2685L150.596 66.9147L149.584 66.4681L149.028 66.2658L148.388 66.0636L147.941 65.9457L147.469 65.8361L147.099 65.7687L146.72 65.7098L146.399 65.6592H146.079H145.776H145.489H144.352H144.057H143.745H143.417L143.08 65.7013L142.65 65.7687C141.694 65.9317 140.759 66.1973 139.861 66.5608L139.187 66.8641C138.689 67.1091 138.21 67.3907 137.754 67.7067L137.03 68.2123C136.71 68.4566 136.297 68.7936 136.002 69.0548L135.319 69.7205C135.083 69.9901 134.763 70.3524 134.536 70.6305L133.954 71.4309C133.777 71.7258 133.525 72.1134 133.356 72.4168L132.91 73.3099C132.783 73.6217 132.606 74.043 132.488 74.3632L132.193 75.3406C132.118 75.6776 132.008 76.1158 131.949 76.4528L131.814 77.4976C131.814 77.8431 131.764 78.3402 131.764 78.652V79.722C131.806 80.0843 131.856 80.5646 131.915 80.9185V80.7163" fill="#999999"/>
<path d="M156.544 77.0501C156.516 79.1732 156.034 81.2657 155.13 83.187C154.226 85.1083 152.921 86.8139 151.304 88.1892L151.093 88.4672C147.293 92.7476 142.347 91.6017 140.4 90.9192L140.948 91.0961L141.251 91.1888L141.698 91.3068L142.17 91.4163L142.541 91.4837L142.911 91.5427L143.24 91.5933H143.56H143.855H144.15H145.287H145.582H145.886H146.214L146.56 91.5511L146.989 91.4837C147.892 91.3338 148.776 91.0881 149.627 90.7507L150.292 90.4642C150.801 90.2293 151.293 89.9619 151.767 89.6637L152.492 89.175C152.812 88.9222 153.233 88.5936 153.536 88.3324L154.219 87.6752C154.463 87.4056 154.792 87.0432 155.061 86.7652L155.651 85.9816C155.828 85.6867 156.081 85.2991 156.258 84.9957L156.713 84.1026C156.839 83.7908 157.025 83.378 157.143 83.0578L157.454 82.0804C157.53 81.7518 157.648 81.3052 157.707 80.9766L157.85 79.9318C157.85 79.5442 157.918 79.0302 157.918 78.6426V77.5725C157.918 77.2355 157.834 76.772 157.783 76.435L157.564 75.4239C157.471 75.0953 157.353 74.6656 157.244 74.3454L156.881 73.4017C156.73 73.0983 156.544 72.6855 156.384 72.3906L155.879 71.548C155.685 71.2699 155.424 70.8907 155.222 70.6211L154.598 69.8796C154.345 69.6268 154.025 69.2814 153.755 69.037L153.064 68.4472C152.535 68.0101 151.971 67.6156 151.379 67.2676C153.053 68.2783 154.425 69.7186 155.354 71.4388C156.283 73.159 156.735 75.0964 156.662 77.0501" fill="#999999"/>
<path d="M131.764 78.593C132.286 67.4876 144.318 66.8388 150.174 73.1919C153.958 77.2869 154.893 82.8481 152.525 87.0273C155.066 84.322 156.5 80.7622 156.544 77.051C156.617 75.0974 156.165 73.1599 155.236 71.4397C154.307 69.7195 152.935 68.2793 151.261 67.2685L150.596 66.9147L149.584 66.4681L149.028 66.2658L148.388 66.0636L147.941 65.9457L147.469 65.8361L147.099 65.7687L146.72 65.7098L146.399 65.6592H146.079H145.776H145.489H144.352H144.057H143.745H143.417L143.08 65.7013L142.65 65.7687C141.694 65.9317 140.759 66.1973 139.861 66.5608L139.187 66.8641C138.689 67.1091 138.21 67.3907 137.754 67.7067L137.03 68.2123C136.71 68.4566 136.297 68.7936 136.002 69.0548L135.319 69.7205C135.083 69.9901 134.763 70.3524 134.536 70.6305L133.954 71.4309C133.777 71.7258 133.525 72.1134 133.356 72.4168L132.91 73.3099C132.783 73.6217 132.606 74.043 132.488 74.3632L132.193 75.3406C132.118 75.6776 132.008 76.1158 131.949 76.4528L131.814 77.4976C131.814 77.8431 131.764 78.3402 131.764 78.652" fill="#949494"/>
<path d="M156.544 77.0507C156.5 80.7619 155.066 84.3216 152.525 87.027V87.027C150.494 90.5743 146.728 92.2342 142.414 91.4674L142.776 91.5348H142.869L143.198 91.5854H143.518H143.813H144.108H145.245H145.54H145.843H146.172L146.518 91.5432L146.947 91.4758C147.85 91.326 148.734 91.0802 149.584 90.7428L150.25 90.4563C150.758 90.2214 151.251 89.954 151.725 89.6558L152.449 89.1672C152.769 88.9144 153.191 88.5858 153.494 88.3246L154.177 87.6673C154.421 87.3977 154.75 87.0354 155.019 86.7573L155.609 85.9737C155.786 85.6788 156.039 85.2912 156.216 84.9879L156.671 84.0947C156.797 83.783 156.982 83.3701 157.1 83.0499L157.412 82.0725C157.488 81.7439 157.606 81.2973 157.665 80.9687L157.808 79.9239C157.808 79.5363 157.876 79.0223 157.876 78.6348V77.5646C157.876 77.2276 157.791 76.7642 157.741 76.4272L157.522 75.416C157.429 75.0874 157.311 74.6577 157.202 74.3375L156.839 73.3938C156.688 73.0905 156.502 72.6776 156.342 72.3827L155.837 71.5401C155.643 71.2621 155.381 70.8829 155.179 70.6133L154.556 69.8718C154.303 69.619 153.983 69.2735 153.713 69.0292L153.022 68.4394C152.493 68.0023 151.929 67.6078 151.337 67.2598C153.011 68.2705 154.383 69.7107 155.312 71.4309C156.241 73.1511 156.693 75.0886 156.62 77.0422" fill="#949494"/>
<path d="M132.051 75.9126C134.284 66.4165 146.914 66.0374 152.534 75.2975C153.508 76.8345 154.112 78.5768 154.298 80.3871C154.484 82.1973 154.246 84.026 153.604 85.7288C155.482 83.2221 156.512 80.1821 156.545 77.0501C156.617 75.0964 156.166 73.1589 155.237 71.4387C154.308 69.7185 152.935 68.2783 151.262 67.2676V67.2676C150.72 66.9601 150.157 66.6926 149.577 66.4671L149.021 66.2649L148.38 66.0627L147.934 65.9447L147.462 65.8352L147.091 65.7677L146.712 65.7088L146.392 65.6582H146.072H145.768H145.482H144.344H144.049H143.738H143.409L143.072 65.7003L142.642 65.7677C141.687 65.9307 140.752 66.1963 139.853 66.5598L139.179 66.8631C138.681 67.1081 138.203 67.3897 137.747 67.7057L137.022 68.2113C136.702 68.4556 136.289 68.7927 135.994 69.0539L135.312 69.7195C135.076 69.9891 134.755 70.3515 134.528 70.6295L133.947 71.43C133.77 71.7249 133.517 72.1125 133.348 72.4158L132.902 73.309C132.775 73.6207 132.598 74.042 132.481 74.3622L132.186 75.3396C132.11 75.6766 132 76.1148 131.941 76.4518L131.891 76.7889C131.891 76.5361 131.992 76.2075 132.042 75.9463" fill="#8F8F8F"/>
<path d="M156.544 77.0498C156.512 80.1818 155.482 83.2219 153.604 85.7285L153.528 85.956C152.797 87.7286 151.534 89.2307 149.913 90.2554C148.292 91.2801 146.393 91.7768 144.479 91.6772H145.321H145.616H145.919H146.248L146.593 91.6351L147.023 91.5677C147.926 91.4178 148.81 91.1721 149.66 90.8346L150.326 90.5481C150.834 90.3132 151.327 90.0459 151.801 89.7477L152.525 89.259C152.845 89.0062 153.267 88.6776 153.57 88.4164L154.253 87.7592C154.497 87.4895 154.826 87.1272 155.095 86.8492L155.685 86.0655C155.862 85.7706 156.115 85.3831 156.292 85.0797L156.747 84.1866C156.873 83.8748 157.058 83.4619 157.176 83.1417L157.488 82.1644C157.564 81.8357 157.682 81.3892 157.741 81.0606L157.884 80.0157C157.884 79.6281 157.952 79.1142 157.952 78.7266V77.6565C157.952 77.3194 157.867 76.856 157.817 76.519L157.598 75.5079C157.505 75.1792 157.387 74.7495 157.277 74.4293L156.915 73.4856C156.764 73.1823 156.578 72.7694 156.418 72.4745L155.912 71.6319C155.719 71.3539 155.458 70.9747 155.255 70.7051L154.632 69.9636C154.379 69.7108 154.059 69.3654 153.789 69.121L153.098 68.5312C152.569 68.0941 152.005 67.6996 151.413 67.3516C153.086 68.3623 154.459 69.8025 155.388 71.5227C156.317 73.2429 156.769 75.1804 156.696 77.1341" fill="#8F8F8F"/>
<path d="M132.395 74.5813C136.229 64.4702 149.247 66.7704 153.679 75.98C154.956 78.5273 155.279 81.4474 154.589 84.2121C155.851 82.0347 156.524 79.5665 156.544 77.0501C156.616 75.0964 156.165 73.1589 155.236 71.4387C154.307 69.7185 152.934 68.2783 151.261 67.2676V67.2676C150.719 66.9601 150.156 66.6926 149.576 66.4671L149.02 66.2649L148.379 66.0627L147.933 65.9447L147.461 65.8352L147.09 65.7677L146.711 65.7088L146.391 65.6582H146.071H145.767H145.481H144.343H144.048H143.737H143.408L143.071 65.7003L142.641 65.7677C141.686 65.9307 140.751 66.1963 139.852 66.5598L139.178 66.8631C138.68 67.1081 138.202 67.3897 137.746 67.7057L137.021 68.2113C136.701 68.4556 136.288 68.7927 135.993 69.0539L135.311 69.7195C135.075 69.9891 134.755 70.3515 134.527 70.6295L133.946 71.43C133.769 71.7249 133.516 72.1125 133.347 72.4158L132.901 73.309C132.774 73.6207 132.598 74.042 132.48 74.3622L132.345 74.7666C132.348 74.7218 132.348 74.6767 132.345 74.6318" fill="#8A8A8A"/>
<path d="M156.545 77.0503C156.525 79.5668 155.852 82.0349 154.59 84.2124L154.421 85.0549C153.882 86.7738 152.863 88.3026 151.483 89.4611C150.104 90.6196 148.422 91.3595 146.636 91.5935L147.065 91.5261C147.93 91.3691 148.777 91.1263 149.593 90.8014L150.259 90.5149C150.767 90.28 151.26 90.0127 151.733 89.7145L152.458 89.2258C152.778 88.973 153.2 88.6444 153.503 88.3832L154.185 87.726C154.43 87.4563 154.758 87.094 155.028 86.816L155.618 86.0324C155.795 85.7375 156.047 85.3498 156.224 85.0465L156.679 84.1534C156.806 83.8416 156.991 83.4287 157.109 83.1086L157.421 82.1312C157.497 81.8025 157.615 81.356 157.674 81.0274L157.817 79.9825C157.817 79.5949 157.884 79.081 157.884 78.6934V77.6233C157.884 77.2862 157.8 76.8228 157.75 76.4858L157.53 75.4747C157.438 75.1461 157.32 74.7163 157.21 74.3962L156.848 73.4524C156.696 73.1491 156.511 72.7362 156.351 72.4413L155.845 71.5987C155.651 71.3207 155.39 70.9415 155.188 70.6719L154.565 69.9304C154.312 69.6776 153.992 69.3322 153.722 69.0878L153.031 68.498C152.501 68.0609 151.938 67.6664 151.346 67.3184C153.019 68.3291 154.392 69.7693 155.321 71.4895C156.25 73.2097 156.701 75.1472 156.629 77.1009" fill="#8A8A8A"/>
<path d="M133.862 71.5479C140.046 62.7176 153.637 68.7927 155.39 78.6847C155.661 79.8591 155.707 81.0743 155.525 82.2657C156.187 80.606 156.533 78.837 156.544 77.0501C156.617 75.0964 156.165 73.1589 155.236 71.4387C154.307 69.7185 152.934 68.2783 151.261 67.2676V67.2676C150.72 66.9601 150.156 66.6926 149.576 66.4671L149.02 66.2649L148.379 66.0627L147.933 65.9447L147.461 65.8352L147.09 65.7677L146.711 65.7088L146.391 65.6582H146.071H145.767H145.481H144.343H144.049H143.737H143.408L143.071 65.7003L142.641 65.7677C141.686 65.9307 140.751 66.1963 139.852 66.5598L139.178 66.8631C138.681 67.1081 138.202 67.3897 137.746 67.7057L137.021 68.2113C136.701 68.4556 136.288 68.7927 135.993 69.0539L135.311 69.7195C135.075 69.9891 134.755 70.3515 134.527 70.6295L133.946 71.43C133.769 71.7249 133.516 72.1125 133.348 72.4158L133.71 71.8176L133.853 71.5985" fill="#858585"/>
<path d="M156.544 77.0498C156.532 78.8368 156.187 80.6058 155.524 82.2655V83.0238C155.285 84.8825 154.515 86.6326 153.306 88.0643C152.097 89.4961 150.5 90.5487 148.708 91.0959L149.18 90.9358L149.635 90.7673L150.3 90.4808C150.809 90.2459 151.301 89.9785 151.775 89.6803L152.5 89.1916C152.82 88.9388 153.241 88.6102 153.544 88.349L154.227 87.6918C154.471 87.4222 154.8 87.0598 155.069 86.7818L155.659 85.9982C155.836 85.7033 156.089 85.3157 156.266 85.0123L156.721 84.1192C156.847 83.8074 157.033 83.3946 157.151 83.0744L157.462 82.097C157.538 81.7684 157.656 81.3218 157.715 80.9932L157.858 79.9484C157.858 79.5608 157.926 79.0468 157.926 78.6592V77.5891C157.926 77.252 157.841 76.7886 157.791 76.4516L157.572 75.4405C157.479 75.1119 157.361 74.6821 157.252 74.362L156.889 73.4183C156.738 73.1149 156.552 72.702 156.392 72.4071L155.887 71.5645C155.693 71.2865 155.432 70.9073 155.23 70.6377L154.606 69.8962C154.353 69.6434 154.033 69.298 153.763 69.0536L153.073 68.4638C152.543 68.0267 151.979 67.6322 151.387 67.2842C153.061 68.2949 154.433 69.7351 155.362 71.4553C156.291 73.1755 156.743 75.113 156.67 77.0667" fill="#858585"/>
<path d="M141.209 90.8434C149.39 92.4528 154.345 83.6982 149.373 76.4351C144.242 68.9444 133.507 70.1578 132.235 78.3815C131.393 83.8162 135.673 89.7565 141.209 90.8434" fill="#ADADAD"/>
<path d="M140.021 90.4305C148.532 93.0593 153.427 84.5745 149.576 77.7158C144.9 69.3657 134.41 70.4105 132.615 77.4882C131.082 83.3864 135.21 88.9391 140.021 90.4305" fill="#B3B3B3"/>
<path d="M138.386 89.6136C145.725 93.4137 152.053 86.9679 150.081 80.2103C147.461 71.2367 136.743 69.8801 133.381 76.2164C130.98 80.7327 133.322 86.9932 138.386 89.6136" fill="#B8B8B8"/>
<path d="M137.872 89.1586C144.74 93.0429 151.649 87.7262 149.61 80.126C147.68 72.9555 136.836 69.4924 133.373 76.8314C131.191 81.4488 133.938 86.9426 137.872 89.1586" fill="#BDBDBD"/>
<path d="M137.097 88.5181C143.374 92.7816 150.402 88.6782 149.424 81.3223C148.43 73.8317 138.521 70.3012 134.258 75.9382C131.216 79.9742 133.238 85.906 137.072 88.5181" fill="#C2C2C2"/>
<path d="M137.004 88.2487C143.467 92.8829 150.115 87.8442 149.02 81.2804C147.714 73.4696 137.577 71.3716 134.274 76.5451C131.629 80.6738 133.634 85.8136 137.004 88.2487Z" fill="#C7C7C7"/>
<path d="M137.106 88.1047C143.771 92.8063 149.703 86.9587 148.607 81.2376C147.133 73.5026 137.586 71.8511 134.283 77.1847C132.177 80.5551 133.441 85.3831 137.097 88.1384" fill="#CCCCCC"/>
<path d="M136.331 87.2032C142.136 92.4525 148.439 87.9362 148.321 82.3751C148.152 74.7328 139.137 72.601 135.413 76.3927C132.312 79.544 133.382 84.5237 136.331 87.2032" fill="#D1D1D1"/>
<path d="M136.507 87.0522C141.993 92.0151 148.691 87.4482 147.924 81.1541C147.183 75.0621 138.529 72.5428 135.066 77.4045C132.724 80.6906 134.055 84.8194 136.507 87.0269" fill="#D6D6D6"/>
<path d="M136.727 86.9003C142.305 91.7873 148.388 86.479 147.68 81.1538C146.888 75.4326 138.917 73.0986 135.496 77.5896C132.901 80.96 134.654 85.0803 136.752 86.9003" fill="#DBDBDB"/>
<path d="M136.154 85.8893C140.678 91.1808 147.107 87.3301 147.411 82.2998C147.773 76.4859 140.291 73.6801 136.642 77.0083C132.994 80.3366 134.755 84.2546 136.154 85.8893" fill="#E0E0E0"/>
<path d="M136.457 85.7286C140.67 90.5398 146.787 86.9083 147.132 82.2824C147.503 77.328 141.234 73.4689 136.819 77.387C133.853 80.0496 134.822 83.8665 136.457 85.7286Z" fill="#E6E6E6"/>
<path d="M136.82 85.5694C140.729 89.9256 146.493 86.5215 146.855 82.2664C146.91 81.0838 146.605 79.9124 145.98 78.907C145.355 77.9015 144.44 77.1095 143.355 76.6355C142.27 76.1616 141.067 76.0281 139.904 76.2527C138.742 76.4773 137.675 77.0494 136.845 77.8934C135.879 78.9381 135.343 80.3086 135.343 81.7314C135.343 83.1542 135.879 84.5246 136.845 85.5694" fill="#EBEBEB"/>
<path d="M137.241 85.4087C137.952 86.1678 138.867 86.7062 139.876 86.9595C140.884 87.2127 141.945 87.1703 142.93 86.8371C143.916 86.5039 144.784 85.894 145.432 85.0805C146.081 84.2669 146.481 83.2839 146.585 82.249C147.083 77.3872 141.336 74.514 137.544 77.7243C136.998 78.195 136.554 78.7732 136.24 79.4229C135.927 80.0725 135.75 80.7798 135.722 81.5006C135.693 82.2213 135.814 82.9402 136.075 83.6126C136.336 84.2849 136.733 84.8963 137.241 85.4087" fill="#F0F0F0"/>
<path d="M136.946 84.3131C137.471 85.1155 138.208 85.7573 139.075 86.1676C139.942 86.578 140.905 86.741 141.859 86.6387C142.878 86.4112 145.962 85.7371 146.392 82.2403C146.906 78.0274 142.002 75.1289 138.32 77.4376C137.246 78.1837 136.503 79.3166 136.247 80.5986C135.991 81.8805 136.242 83.2119 136.946 84.3131" fill="#F5F5F5"/>
<path d="M137.41 84.1791C137.953 84.9884 138.728 85.6152 139.633 85.9778C140.538 86.3403 141.532 86.4219 142.484 86.2119C143.436 86.0018 144.303 85.5098 144.971 84.8001C145.64 84.0903 146.079 83.1957 146.231 82.2327C146.518 80.261 145.507 78.4663 143.476 77.3035C142.671 76.8891 141.764 76.7118 140.861 76.7924C139.959 76.8729 139.098 77.208 138.379 77.7585C137.412 78.4911 136.769 79.5723 136.588 80.7718C136.407 81.9712 136.702 83.1939 137.41 84.1791" fill="#FAFAFA"/>
<path d="M137.738 84.1025C140.265 87.3043 145.371 86.1584 146.003 82.2404C146.147 81.3978 146.189 79.1565 143.476 77.5387C142.633 77.0584 140.948 76.4518 138.664 77.8926C138.189 78.2348 137.788 78.6693 137.484 79.1702C137.181 79.6711 136.981 80.228 136.898 80.8077C136.814 81.3874 136.849 81.978 136.999 82.5441C137.149 83.1102 137.412 83.6402 137.771 84.1025" fill="white"/>
<path d="M138.125 83.9934C138.632 84.6506 139.317 85.1485 140.099 85.4282C140.88 85.7079 141.726 85.7575 142.535 85.5713C143.343 85.385 144.082 84.9707 144.662 84.3774C145.243 83.7841 145.641 83.0367 145.81 82.224C146.45 78.7525 142.246 75.9466 139.204 77.8003C136.036 79.7299 137.3 83.016 138.125 83.9934Z" fill="white"/>
<path d="M138.167 83.4367C138.581 84.1416 139.198 84.7047 139.937 85.052C140.677 85.3993 141.505 85.5143 142.311 85.3821C143.117 85.2498 143.865 84.8764 144.455 84.311C145.044 83.7457 145.449 83.0149 145.616 82.2149C145.928 80.6983 145.254 79.2996 143.627 78.0525C143.053 77.7076 142.408 77.4986 141.74 77.4417C141.073 77.3847 140.401 77.4812 139.777 77.7239C137.982 78.7856 137.889 79.0889 137.485 80.5382C137.389 81.0422 137.401 81.5606 137.518 82.0599C137.636 82.5592 137.857 83.0282 138.167 83.4367" fill="white"/>
<path d="M138.749 83.8583C139.256 84.3391 139.864 84.7006 140.529 84.9163C141.194 85.1321 141.898 85.1967 142.591 85.1053C144.15 84.4565 144.184 84.4397 144.976 83.3274C145.397 82.6513 145.572 81.8511 145.473 81.0609C145.315 80.1442 144.863 79.3039 144.184 78.6679C143.51 78.0444 143.51 78.0444 141.715 77.5725C140.577 77.2692 138.623 78.6427 138.286 79.1651C137.827 79.8867 137.624 80.7409 137.708 81.5916C137.792 82.4422 138.158 83.2402 138.749 83.8583" fill="white"/>
<path d="M138.251 82.788C138.654 83.5394 139.281 84.1458 140.046 84.5221C140.811 84.8984 141.674 85.0257 142.515 84.886C143.15 84.6989 143.728 84.3557 144.196 83.8876C144.664 83.4195 145.007 82.8416 145.194 82.2066C145.306 81.5563 145.247 80.888 145.023 80.2675C144.798 79.6469 144.416 79.0956 143.913 78.6677C143.25 78.1959 142.49 77.8765 141.689 77.7324C141.113 77.683 140.534 77.7785 140.004 78.0105C139.46 78.2746 138.977 78.6508 138.588 79.1143C138.462 79.2575 137.923 80.4371 137.914 80.4456C137.794 81.2434 137.915 82.0588 138.26 82.788" fill="white"/>
<path d="M138.505 82.7466C138.908 83.4261 139.503 83.9715 140.215 84.3147C140.927 84.6579 141.724 84.7836 142.507 84.6762L143.754 84.1369C144.375 83.6439 144.825 82.9692 145.043 82.2073C145.184 81.5524 145.132 80.8708 144.894 80.2446C144.656 79.6184 144.243 79.074 143.704 78.6769C143.095 78.3079 142.429 78.0457 141.732 77.9017C141.154 77.8623 140.575 77.9665 140.047 78.205C139.601 78.4246 139.206 78.733 138.884 79.1112C138.562 79.4894 138.321 79.9294 138.176 80.4042C138.026 81.1999 138.142 82.0228 138.505 82.7466" fill="white"/>
<path d="M138.732 82.7039C138.732 82.7039 139.574 83.6308 139.633 83.6982C140.112 83.9921 140.617 84.2404 141.142 84.4397C141.577 84.541 142.029 84.541 142.464 84.4397C142.934 84.3946 143.378 84.2063 143.737 83.9004C144.254 83.4484 144.64 82.8666 144.857 82.2152C145.021 81.5565 144.975 80.8631 144.726 80.2317C144.477 79.6004 144.037 79.0625 143.467 78.6932C142.968 78.3454 142.387 78.1335 141.782 78.0781C141.203 78.0556 140.627 78.1651 140.097 78.3983C139.719 78.5864 139.383 78.8492 139.11 79.171C138.836 79.4928 138.631 79.8667 138.507 80.2701C138.382 80.6735 138.341 81.0979 138.386 81.5178C138.43 81.9376 138.559 82.344 138.765 82.7124" fill="white"/>
<path d="M138.96 82.6624C139.317 83.242 139.836 83.7043 140.453 83.9918C141.07 84.2794 141.758 84.3796 142.431 84.2802C142.909 84.2162 143.357 84.0141 143.721 83.6988C144.13 83.2655 144.456 82.7598 144.681 82.2074C144.835 81.5995 144.802 80.9595 144.587 80.3705C144.372 79.7814 143.985 79.2706 143.476 78.9044C142.938 78.6251 142.373 78.3994 141.791 78.2303C141.21 78.2181 140.633 78.3392 140.106 78.5842C140.106 78.5842 137.536 80.2694 138.985 82.6624" fill="white"/>
<path d="M139.195 82.6196C139.666 83.2345 140.291 83.7141 141.007 84.0099C141.461 84.1421 141.938 84.1737 142.406 84.1026C142.89 84.0249 143.34 83.8083 143.703 83.4791C144.012 83.0846 144.278 82.658 144.495 82.2068C144.642 81.6527 144.626 81.0684 144.449 80.5232C144.273 79.978 143.944 79.4949 143.501 79.1313C142.988 78.7479 142.39 78.4961 141.757 78.3983C141.173 78.3859 140.594 78.5161 140.072 78.7774C140.072 78.7774 137.83 80.4205 139.17 82.6196" fill="white"/>
<path d="M139.414 82.5862C139.847 83.0912 140.377 83.5038 140.973 83.7995C141.425 83.943 141.902 83.9861 142.372 83.9259C142.372 83.9259 143.551 83.3614 143.686 83.2434C143.972 82.9497 144.188 82.5955 144.318 82.207C144.465 81.6975 144.464 81.1566 144.315 80.6477C144.166 80.1388 143.875 79.683 143.476 79.3338C142.943 79.0154 142.378 78.7555 141.79 78.5586C141.221 78.6677 140.659 78.8084 140.105 78.9799C139.629 79.2742 139.269 79.7235 139.086 80.2522C138.963 80.6403 138.928 81.0505 138.981 81.4539C139.035 81.8573 139.177 82.2439 139.397 82.5862" fill="white"/>
<path d="M139.625 82.5522C139.625 82.5522 140.763 83.5127 140.914 83.5801C141.371 83.7381 141.857 83.7928 142.338 83.7402C142.814 83.5449 143.262 83.2871 143.67 82.9735C143.885 82.7603 144.044 82.4968 144.133 82.2067C144.292 81.7502 144.318 81.2575 144.206 80.787C144.094 80.3166 143.849 79.8882 143.501 79.5525C143.501 79.5525 141.875 78.71 141.816 78.71C141.757 78.71 140.249 79.1481 140.181 79.1902C139.671 79.573 139.332 80.1403 139.236 80.7705C139.14 81.4006 139.295 82.0433 139.667 82.5606" fill="white"/>
<path d="M139.844 82.5276C140.116 82.8787 140.461 83.1663 140.855 83.3702C141.322 83.5404 141.818 83.6122 142.313 83.5809C142.78 83.3327 143.227 83.0511 143.653 82.7383C143.792 82.6003 143.893 82.4292 143.948 82.2412C144.083 81.8294 144.113 81.3906 144.037 80.9642C143.96 80.5378 143.779 80.137 143.51 79.7977C143.021 79.3894 142.444 79.1008 141.825 78.9551C141.245 78.9558 140.68 79.1353 140.207 79.469C139.769 79.848 139.492 80.3789 139.431 80.9546C139.37 81.5302 139.53 82.1075 139.878 82.5698" fill="white"/>
<path d="M140.072 82.4937C140.264 82.7461 140.512 82.9509 140.797 83.0919C141.26 83.3066 141.77 83.4022 142.28 83.37C142.787 83.1515 143.248 82.8368 143.636 82.4431C143.698 82.379 143.745 82.3011 143.771 82.2156C144.209 80.7916 143.628 80.1176 143.358 79.8901C142.921 79.4892 142.381 79.2179 141.799 79.1064C141.234 79.1802 140.69 79.3664 140.198 79.6541C139.617 79.8816 139.566 81.3393 139.566 81.3899C139.645 81.7927 139.818 82.1711 140.072 82.4937" fill="white"/>
<path d="M140.299 82.468C140.413 82.6261 140.567 82.7511 140.746 82.8303C141.214 83.0615 141.732 83.1743 142.254 83.1589C142.726 83.0578 143.181 82.5269 143.552 82.2236C143.552 82.2236 143.602 82.1056 143.611 82.0551C143.732 81.7386 143.781 81.3988 143.754 81.0608C143.62 80.6158 143.37 80.2145 143.029 79.8981C142.687 79.5921 142.267 79.3853 141.816 79.2998C141.248 79.3729 140.704 79.5715 140.223 79.8812C140.132 79.9435 140.062 80.0315 140.021 80.134C139.831 80.5069 139.756 80.9277 139.806 81.3432C139.855 81.7586 140.027 82.15 140.299 82.468" fill="white"/>
<path d="M140.518 82.418C140.562 82.4765 140.62 82.5229 140.687 82.5528C141.166 82.7835 141.689 82.9098 142.221 82.9235C142.617 82.7954 142.962 82.5446 143.206 82.2073C143.405 81.885 143.529 81.5222 143.569 81.1456C143.586 81.0936 143.586 81.0376 143.569 80.9855C143.338 80.5848 143.054 80.2164 142.726 79.8902C142.488 79.6748 142.198 79.5265 141.884 79.4604C141.593 79.4544 141.305 79.5056 141.035 79.6111C140.764 79.7166 140.517 79.8745 140.308 80.0755C140.069 80.4382 139.97 80.8755 140.03 81.3057C140.117 81.7146 140.302 82.0962 140.569 82.418" fill="white"/>
<path d="M140.594 82.1391C140.674 82.248 140.778 82.3373 140.897 82.4003C141.297 82.607 141.737 82.7222 142.186 82.7373C142.459 82.6579 142.695 82.4848 142.852 82.2486C143.116 81.9138 143.267 81.5036 143.282 81.0774C143.214 80.6393 142.684 80.2348 142.363 79.9315C142.222 79.7969 142.042 79.7087 141.849 79.6787C141.403 79.6787 139.322 80.5213 140.594 82.1391Z" fill="white"/>
<path d="M140.468 81.4488C140.758 81.7986 141.102 82.1 141.487 82.3419C141.686 82.4745 141.923 82.5368 142.161 82.5189C142.232 82.5029 142.299 82.4722 142.357 82.4286C142.415 82.385 142.463 82.3297 142.498 82.2661C142.684 81.9375 143.021 81.4657 142.962 81.0865C142.962 81.0865 142.119 79.8816 141.867 79.8732C141.614 79.8647 141.563 79.8732 140.417 81.1539C140.358 81.2213 140.417 81.3814 140.468 81.4488Z" fill="white"/>
<path d="M142.085 82.2995C142.284 81.909 142.459 81.5066 142.608 81.0946C142.557 80.7407 142.203 80.2014 141.849 80.1846C141.586 80.2221 141.341 80.3442 141.153 80.5326C140.964 80.7211 140.842 80.9656 140.805 81.2294C140.805 81.7181 141.647 82.072 142.043 82.2911" fill="white"/>
<path d="M142.06 81.7607C142.263 81.7185 142.364 81.3309 142.33 81.1203C142.296 80.9096 142.119 80.6569 141.934 80.6484C141.798 80.6686 141.672 80.732 141.575 80.8291C141.478 80.9261 141.415 81.0519 141.395 81.1877C141.395 81.4489 141.799 81.8281 142.06 81.7607" fill="white"/>
<path d="M141.993 81.1958C141.993 81.1958 141.993 81.1534 141.993 81.1364C141.993 81.1195 141.993 81.1364 141.993 81.1364C141.99 81.1431 141.988 81.1503 141.988 81.1576C141.988 81.165 141.99 81.1722 141.993 81.1788C141.995 81.1917 142.001 81.2037 142.01 81.2129C142.019 81.2221 142.031 81.228 142.044 81.2297" fill="white"/>
<path d="M138.378 90.0008C135.567 88.4035 133.447 85.8213 132.427 82.7527C131.408 79.6841 131.562 76.3467 132.859 73.3849C133.307 72.391 133.873 71.4546 134.544 70.5959C136.257 68.4137 138.617 66.8298 141.285 66.0712C142.943 65.6036 144.677 65.4701 146.386 65.6784C148.096 65.8867 149.747 66.4327 151.244 67.2845C149.292 66.1959 147.036 65.7785 144.824 66.0965C147.036 65.7785 149.292 66.1959 151.244 67.2845C153.667 68.6618 155.588 70.7749 156.73 73.3175C157.782 75.6529 158.116 78.2485 157.69 80.7744C157.352 82.8526 156.517 84.8183 155.256 86.5041C153.995 88.1899 152.344 89.5457 150.446 90.456C148.547 91.3664 146.457 91.8042 144.353 91.7323C142.249 91.6604 140.193 91.0807 138.361 90.0429" fill="#A8A8A8"/>
<path d="M151.261 67.2511C152.129 67.7518 152.94 68.3451 153.68 69.0205L154.362 69.6946C154.598 69.9642 154.91 70.3265 155.137 70.6046L155.71 71.405C155.887 71.7 156.14 72.0876 156.3 72.3825L156.746 73.284C156.873 73.6042 157.05 74.0171 157.159 74.3373L157.463 75.3147C157.53 75.6517 157.64 76.0899 157.699 76.4269L157.825 77.4717C157.825 77.8172 157.876 78.3143 157.876 78.6345V79.6962C157.825 80.0753 157.774 80.5893 157.707 80.9685L157.48 81.9712C157.378 82.2998 157.261 82.7295 157.143 83.0497L156.763 83.985C156.612 84.2883 156.418 84.6927 156.258 84.9876L155.735 85.8302C155.542 86.1083 155.28 86.4875 155.061 86.7571L154.438 87.4817C154.185 87.7345 153.848 88.08 153.595 88.3243L152.913 88.9057C152.593 89.1332 152.154 89.445 151.826 89.6641L151.169 90.0516C150.691 90.3197 150.196 90.5534 149.686 90.751L149.214 90.9279C148.371 91.2211 147.502 91.43 146.619 91.5515L146.282 91.5936H145.944H145.641H145.346H144.15H143.855H143.56H143.24L142.911 91.543L142.549 91.4841L142.17 91.4166L141.732 91.3155L141.251 91.1891L140.712 91.0206L140.055 90.7847L139.389 90.4982C139.086 90.355 138.673 90.1443 138.378 89.9842L137.637 89.5292C137.291 89.2849 136.844 88.9647 136.516 88.6866L135.808 88.0631C135.555 87.7935 135.21 87.448 134.965 87.1784L134.35 86.4116C134.148 86.1251 133.879 85.7544 133.693 85.4595L133.204 84.6169C133.061 84.3136 132.859 83.9091 132.733 83.5974L132.379 82.6368C132.294 82.3082 132.16 81.8785 132.084 81.5414L131.89 80.5219C131.831 79.9574 131.781 79.1906 131.764 78.6176V77.556C131.806 77.2105 131.848 76.7555 131.907 76.4185L132.126 75.4074C132.219 75.0788 132.337 74.649 132.446 74.3288L132.817 73.3851C132.969 73.0818 133.154 72.6774 133.314 72.3825L133.828 71.5399C134.022 71.2534 134.283 70.8742 134.494 70.6046L135.109 69.8715C135.362 69.6187 135.69 69.2733 135.951 69.0289L136.634 68.4391C136.954 68.2032 137.375 67.8914 137.704 67.6724L138.37 67.2679C138.835 67.0063 139.317 66.7728 139.81 66.5686L140.291 66.3832C141.177 66.0634 142.095 65.8375 143.029 65.7091L143.366 65.667H143.695H143.998H144.301H145.439H145.725H146.029H146.34L146.669 65.7175L147.031 65.7765L147.419 65.8439L147.849 65.9451L148.337 66.0714L148.868 66.2399L149.534 66.4759L150.2 66.7624C150.503 66.9056 150.907 67.1163 151.211 67.2763C149.258 66.1878 147.003 65.7704 144.79 66.0883C133.424 69.4587 137.443 81.7184 144.403 85.1562C152.323 89.0658 159.645 82.7969 157.041 74.3457C156.089 71.2365 153.224 66.0377 144.799 66.0883C147.011 65.7704 149.267 66.1878 151.219 67.2763" fill="#A8A8A8"/>
<path d="M151.261 67.2511C152.129 67.7518 152.94 68.3451 153.68 69.0205L154.362 69.6946C154.598 69.9642 154.91 70.3265 155.137 70.6046L155.71 71.405C155.887 71.7 156.14 72.0876 156.3 72.3825L156.746 73.284C156.873 73.6042 157.05 74.0171 157.159 74.3373L157.463 75.3147C157.53 75.6517 157.64 76.0899 157.699 76.4269L157.825 77.4717C157.825 77.8172 157.876 78.3143 157.876 78.6345V79.6962C157.825 80.0753 157.774 80.5893 157.707 80.9685L157.48 81.9712C157.378 82.2998 157.261 82.7295 157.143 83.0497L156.763 83.985C156.612 84.2883 156.418 84.6927 156.258 84.9876L155.735 85.8302C155.542 86.1083 155.28 86.4875 155.061 86.7571L154.438 87.4817C154.185 87.7345 153.848 88.08 153.595 88.3243L152.913 88.9057C152.593 89.1332 152.154 89.445 151.826 89.6641L151.169 90.0516C150.691 90.3197 150.196 90.5534 149.686 90.751L149.214 90.9279C148.371 91.2211 147.502 91.43 146.619 91.5515L146.282 91.5936H145.944H145.641H145.346H144.15H143.855H143.56H143.24L142.911 91.543L142.549 91.4841L142.17 91.4166L141.732 91.3155L141.251 91.1891L140.712 91.0206L140.055 90.7847L139.389 90.4982C139.086 90.355 138.673 90.1443 138.378 89.9842L137.637 89.5292C137.291 89.2849 136.844 88.9647 136.516 88.6866L135.808 88.0631C135.555 87.7935 135.21 87.448 134.965 87.1784L134.35 86.4116C134.148 86.1251 133.879 85.7544 133.693 85.4595L133.204 84.6169C133.061 84.3136 132.859 83.9091 132.733 83.5974L132.379 82.6368C132.294 82.3082 132.16 81.8785 132.084 81.5414L131.89 80.5219C131.831 79.9574 131.781 79.1906 131.764 78.6176V77.556C131.806 77.2105 131.848 76.7555 131.907 76.4185L132.126 75.4074C132.219 75.0788 132.337 74.649 132.446 74.3288L132.817 73.3851C132.969 73.0818 133.154 72.6774 133.314 72.3825L133.828 71.5399C134.022 71.2534 134.283 70.8742 134.494 70.6046L135.109 69.8715C135.362 69.6187 135.69 69.2733 135.951 69.0289L136.634 68.4391C136.954 68.2032 137.375 67.8914 137.704 67.6724L138.37 67.2679C138.835 67.0063 139.317 66.7728 139.81 66.5686L140.291 66.3832C141.177 66.0634 142.095 65.8375 143.029 65.7091L143.366 65.667H143.695H143.998H144.301H145.439H145.725H146.029H146.34L146.669 65.7175L147.031 65.7765L147.419 65.8439L147.849 65.9451L148.337 66.0714L148.868 66.2399L149.534 66.4759L150.2 66.7624C150.503 66.9056 150.907 67.1163 151.211 67.2763C150.565 66.9189 149.881 66.6362 149.172 66.4338H149.096C139.515 63.7627 134.452 73.1071 138.909 80.6904C143.914 89.2006 155.525 88.7962 157.446 80.0501C158.668 74.4889 154.918 68.397 149.155 66.459C149.864 66.6615 150.548 66.9442 151.194 67.3016" fill="#A3A3A3"/>
<path d="M157.159 74.3548C157.397 75.0352 157.577 75.7342 157.699 76.4445L157.825 77.4893C157.825 77.8347 157.876 78.3319 157.876 78.652V79.7137C157.825 80.0929 157.774 80.6069 157.707 80.986L157.48 81.9887C157.378 82.3173 157.261 82.747 157.143 83.0672L156.763 84.0025C156.612 84.3058 156.418 84.7103 156.258 85.0052L155.735 85.8478C155.542 86.1258 155.28 86.505 155.061 86.7746L154.438 87.4993C154.185 87.752 153.848 88.0975 153.595 88.3419L152.913 88.9232C152.593 89.1507 152.154 89.4625 151.826 89.6816L151.169 90.0692C150.691 90.3372 150.196 90.571 149.686 90.7685L149.214 90.9455C148.371 91.2386 147.502 91.4475 146.619 91.569L146.282 91.6111H145.944H145.641H145.346H144.15H143.855H143.56H143.24L142.911 91.5606L142.549 91.5016L142.17 91.4342L141.732 91.333L141.251 91.2067L140.712 91.0382L140.055 90.8022L139.389 90.5157C139.086 90.3725 138.673 90.1619 138.378 90.0018L137.637 89.5468C137.291 89.3024 136.844 88.9822 136.516 88.7042L135.808 88.0807C135.555 87.811 135.21 87.4656 134.965 87.1959L134.35 86.4292C134.148 86.1427 133.879 85.772 133.693 85.477L133.204 84.6345C133.061 84.3311 132.859 83.9267 132.733 83.6149L132.379 82.6544C132.294 82.3257 132.16 81.896 132.084 81.559L131.89 80.5394C131.831 79.9749 131.781 79.2082 131.764 78.6352V77.5735C131.806 77.2281 131.848 76.7731 131.907 76.436L132.126 75.4249C132.219 75.0963 132.337 74.6666 132.446 74.3464L132.817 73.4027C132.969 73.0994 133.154 72.6949 133.314 72.4L133.828 71.5574C134.022 71.2709 134.283 70.8918 134.494 70.6221L135.109 69.8891C135.362 69.6363 135.69 69.2909 135.951 69.0465L136.634 68.4567C136.954 68.2208 137.375 67.909 137.704 67.6899L138.37 67.2855C138.835 67.0239 139.317 66.7903 139.81 66.5861L140.291 66.4008C141.177 66.0809 142.095 65.855 143.029 65.7267L143.366 65.6846H143.695H143.998H144.301H145.439H145.725H146.029H146.34L146.669 65.7351L147.031 65.7941L147.419 65.8615L147.849 65.9626L148.337 66.089L148.868 66.2575L149.534 66.4935L150.2 66.7799C150.503 66.9232 150.907 67.1338 151.211 67.2939L150.983 67.1675L150.2 66.7799C140.931 62.7439 134.3 71.1277 137.62 79.2082C141.63 88.9991 153.705 89.5468 156.915 82.1909C157.995 79.5414 157.995 76.5747 156.915 73.9251C156.966 74.0599 157.033 74.2453 157.075 74.3801" fill="#9E9E9E"/>
<path d="M151.261 67.2504L151.909 67.6464L151.126 67.1746L151.033 67.124L151.261 67.2504Z" fill="#9E9E9E"/>
<path d="M157.699 76.4444C157.819 77.1741 157.878 77.9125 157.876 78.652V79.7137C157.825 80.0929 157.774 80.6068 157.707 80.986L157.48 81.9887C157.378 82.3173 157.261 82.747 157.143 83.0672L156.763 84.0025C156.612 84.3058 156.418 84.7103 156.258 85.0052L155.735 85.8478C155.542 86.1258 155.28 86.505 155.061 86.7746L154.438 87.4992C154.185 87.752 153.848 88.0975 153.595 88.3418L152.913 88.9232C152.593 89.1507 152.154 89.4625 151.826 89.6815L151.169 90.0691C150.691 90.3372 150.196 90.5709 149.686 90.7685L149.214 90.9454C148.371 91.2386 147.502 91.4475 146.619 91.5689L146.282 91.6111H145.944H145.641H145.346H144.15H143.855H143.56H143.24L142.911 91.5605L142.549 91.5015L142.17 91.4341L141.732 91.333L141.251 91.2066L140.712 91.0381L140.055 90.8022L139.389 90.5157C139.086 90.3725 138.673 90.1618 138.378 90.0017L137.637 89.5467C137.291 89.3024 136.844 88.9822 136.516 88.7041L135.808 88.0806C135.555 87.811 135.21 87.4655 134.965 87.1959L134.35 86.4291C134.148 86.1427 133.879 85.7719 133.693 85.477L133.204 84.6344C133.061 84.3311 132.859 83.9267 132.733 83.6149L132.379 82.6543C132.294 82.3257 132.16 81.896 132.084 81.559L131.89 80.5394C131.831 79.9749 131.781 79.2081 131.764 78.6352V77.5735C131.806 77.228 131.848 76.773 131.907 76.436L132.126 75.4249C132.219 75.0963 132.337 74.6666 132.446 74.3464L132.817 73.4027C132.969 73.0993 133.154 72.6949 133.314 72.4L133.828 71.5574C134.022 71.2709 134.283 70.8917 134.494 70.6221L135.109 69.8891C135.362 69.6363 135.69 69.2908 135.951 69.0465L136.634 68.4567C136.954 68.2207 137.375 67.909 137.704 67.6899L138.37 67.2855C138.835 67.0239 139.317 66.7903 139.81 66.5861L140.291 66.4007C141.177 66.0809 142.095 65.855 143.029 65.7267L143.366 65.6845H143.695H143.998H144.301H145.439H145.725H146.029H146.34L146.669 65.7351L147.031 65.7941L147.419 65.8615L147.849 65.9626L148.337 66.089L148.868 66.2575L149.188 66.3586L148.506 66.1395C138.816 63.3842 133.449 73.0404 137.805 80.8765C142.987 90.145 154.842 89.3445 157.294 81.6432C157.828 79.955 157.946 78.1629 157.64 76.4192C157.636 76.4358 157.636 76.4531 157.64 76.4697" fill="#999999"/>
<path d="M157.876 78.6511C157.876 79.4338 157.805 80.215 157.665 80.985L157.437 81.9877C157.336 82.3163 157.218 82.7461 157.1 83.0662L156.721 84.0015C156.57 84.3049 156.376 84.7093 156.216 85.0042L155.693 85.8468C155.499 86.1249 155.238 86.504 155.019 86.7737L154.396 87.4983C154.143 87.7511 153.806 88.0965 153.553 88.3409L152.871 88.9223C152.55 89.1498 152.112 89.4615 151.784 89.6806L151.126 90.0682C150.649 90.3363 150.154 90.57 149.643 90.7675L149.172 90.9445C148.329 91.2377 147.46 91.4465 146.576 91.568L146.239 91.6101H145.902H145.599H145.304H144.15H143.855H143.56H143.24L142.911 91.5596L142.549 91.5006L142.17 91.4332L141.732 91.3321L141.251 91.2057L140.712 91.0372L140.055 90.8013L139.389 90.5148C139.086 90.3715 138.673 90.1609 138.378 90.0008L137.637 89.5458C137.291 89.3014 136.844 88.9812 136.516 88.7032L135.808 88.0797C135.555 87.81 135.21 87.4646 134.965 87.195L134.35 86.4282C134.148 86.1417 133.879 85.771 133.693 85.4761L133.204 84.6335C133.061 84.3301 132.859 83.9257 132.733 83.6139L132.379 82.6534C132.294 82.3248 132.16 81.8951 132.084 81.558L131.89 80.5385C131.831 79.9739 131.781 79.2072 131.764 78.6342V77.5725C131.806 77.2271 131.848 76.7721 131.907 76.435L132.126 75.4239C132.219 75.0953 132.337 74.6656 132.446 74.3454L132.817 73.4017C132.969 73.0984 133.154 72.6939 133.314 72.399L133.828 71.5564C134.022 71.2699 134.283 70.8908 134.494 70.6212L135.109 69.8881C135.362 69.6353 135.69 69.2899 135.951 69.0455L136.634 68.4557C136.954 68.2198 137.375 67.908 137.704 67.6889L138.37 67.2845C138.835 67.0229 139.317 66.7893 139.81 66.5851L140.291 66.3998C141.177 66.0799 142.095 65.854 143.029 65.7257L143.366 65.6836H143.695H143.998H144.301H145.439H145.725H146.029H146.34L146.669 65.7341L147.031 65.7931H147.133H147.031C136.735 64.1922 132.707 75.5587 138.471 83.0157C144.714 91.0372 156.586 89.293 157.724 80.1846C157.793 79.6538 157.827 79.119 157.825 78.5837V78.6848" fill="#949494"/>
<path d="M157.631 80.986C157.5 81.694 157.311 82.3901 157.067 83.0672L156.688 84.0025C156.536 84.3058 156.342 84.7103 156.182 85.0052L155.66 85.8478C155.466 86.1258 155.205 86.505 154.985 86.7746L154.362 87.4993C154.109 87.752 153.772 88.0975 153.519 88.3419L152.837 88.9232C152.517 89.1507 152.079 89.4625 151.75 89.6816L151.093 90.0692C150.616 90.3372 150.12 90.571 149.61 90.7685L149.138 90.9455C148.296 91.2386 147.426 91.4475 146.543 91.569L146.206 91.6111H145.869H145.565H145.27H144.15H143.855H143.56H143.24L142.911 91.5606L142.549 91.5016L142.17 91.4342L141.732 91.333L141.251 91.2067L140.712 91.0382L140.055 90.8022L139.389 90.5157C139.086 90.3725 138.673 90.1619 138.378 90.0018L137.637 89.5468C137.291 89.3024 136.844 88.9822 136.516 88.7042L135.808 88.0807C135.555 87.811 135.21 87.4656 134.965 87.1959L134.35 86.4292C134.148 86.1427 133.879 85.772 133.693 85.477L133.204 84.6345C133.061 84.3311 132.859 83.9267 132.733 83.6149L132.379 82.6544C132.294 82.3257 132.16 81.896 132.084 81.559L131.89 80.5394C131.831 79.9749 131.781 79.2082 131.764 78.6352V77.5735C131.806 77.2281 131.848 76.7731 131.907 76.436L132.126 75.4249C132.219 75.0963 132.337 74.6666 132.446 74.3464L132.817 73.4027C132.969 73.0994 133.154 72.6949 133.314 72.4L133.828 71.5574C134.022 71.2709 134.283 70.8918 134.494 70.6221L135.109 69.8891C135.362 69.6363 135.69 69.2909 135.951 69.0465L136.634 68.4567C136.954 68.2208 137.375 67.909 137.704 67.6899L138.37 67.2855C138.835 67.0239 139.317 66.7903 139.81 66.5861L140.291 66.4008C141.177 66.0809 142.095 65.855 143.029 65.7267L143.366 65.6846H143.695H143.998H144.301H144.891C135.185 65.7351 131.797 77.4387 139.322 84.9631C145.439 91.0803 155.971 89.8754 157.69 80.6321C157.69 80.7754 157.64 80.9608 157.614 81.104" fill="#8F8F8F"/>
<path d="M157.1 83.0665C156.873 83.7346 156.592 84.3828 156.258 85.0045L155.735 85.8471C155.542 86.1251 155.28 86.5043 155.061 86.7739L154.438 87.4985C154.185 87.7513 153.848 88.0968 153.595 88.3411L152.913 88.9225C152.593 89.15 152.154 89.4618 151.826 89.6808L151.169 90.0684C150.691 90.3365 150.196 90.5702 149.686 90.7678L149.214 90.9447C148.371 91.2379 147.502 91.4468 146.619 91.5682L146.282 91.6104H145.944H145.641H145.346H144.15H143.855H143.56H143.24L142.911 91.5598L142.549 91.5008L142.17 91.4334L141.732 91.3323L141.251 91.2059L140.712 91.0374L140.055 90.8015L139.389 90.515C139.086 90.3718 138.673 90.1611 138.378 90.001L137.637 89.546C137.291 89.3017 136.844 88.9815 136.516 88.7034L135.808 88.0799C135.555 87.8103 135.21 87.4648 134.965 87.1952L134.35 86.4284C134.148 86.142 133.879 85.7712 133.693 85.4763L133.204 84.6337C133.061 84.3304 132.859 83.9259 132.733 83.6142L132.379 82.6536C132.294 82.325 132.16 81.8953 132.084 81.5583L131.89 80.5387C131.831 79.9742 131.781 79.2074 131.764 78.6345V77.5728C131.806 77.2273 131.848 76.7723 131.907 76.4353L132.126 75.4242C132.219 75.0956 132.337 74.6659 132.446 74.3457L132.817 73.4019C132.969 73.0986 133.154 72.6942 133.314 72.3993L133.828 71.5567C134.022 71.2702 134.283 70.891 134.494 70.6214L135.109 69.8883C135.362 69.6356 135.69 69.2901 135.951 69.0458L136.634 68.4559C136.954 68.22 137.375 67.9082 137.704 67.6892L138.37 67.2847C138.835 67.0231 139.317 66.7896 139.81 66.5854L140.291 66.4C141.154 66.0903 142.046 65.8673 142.953 65.7344H142.751C132.775 67.4617 131.553 80.5134 140.771 86.8919C147.217 91.3576 155.095 89.2848 157.227 82.5441C157.176 82.7042 157.109 82.9148 157.05 83.0749" fill="#8A8A8A"/>
<path d="M156.216 85.0042C155.864 85.6245 155.464 86.2161 155.019 86.7736L154.396 87.4983C154.143 87.751 153.806 88.0965 153.553 88.3408L152.871 88.9222C152.55 89.1497 152.112 89.4615 151.784 89.6806L151.126 90.0681C150.649 90.3362 150.154 90.5699 149.643 90.7675L149.172 90.9445C148.329 91.2376 147.46 91.4465 146.576 91.568L146.239 91.6101H145.902H145.599H145.304H144.15H143.855H143.56H143.24L142.911 91.5596L142.549 91.5006L142.17 91.4332L141.731 91.332L141.251 91.2057L140.712 91.0372L140.055 90.8012L139.389 90.5147C139.086 90.3715 138.673 90.1608 138.378 90.0008L137.637 89.5457C137.291 89.3014 136.844 88.9812 136.516 88.7032L135.808 88.0796C135.555 87.81 135.21 87.4646 134.965 87.1949L134.35 86.4282C134.148 86.1417 133.879 85.7709 133.693 85.476L133.204 84.6334C133.061 84.3301 132.859 83.9257 132.733 83.6139L132.379 82.6533C132.294 82.3247 132.16 81.895 132.084 81.558L131.89 80.5384C131.831 79.9739 131.781 79.2071 131.764 78.6342V77.5725C131.806 77.227 131.848 76.772 131.907 76.435L132.126 75.4239C132.219 75.0953 132.337 74.6656 132.446 74.3454L132.817 73.4017C132.969 73.0983 133.154 72.6939 133.314 72.399L133.828 71.5564C134.022 71.2699 134.283 70.8907 134.494 70.6211L135.109 69.8881C135.362 69.6353 135.69 69.2898 135.951 69.0455L136.634 68.4556C136.954 68.2197 137.375 67.908 137.704 67.6889L138.37 67.2845C138.835 67.0229 139.317 66.7893 139.81 66.5851L140.291 66.3997L140.956 66.1807C131.165 69.2814 131.536 83.1505 141.555 88.3324C148.38 91.8713 153.974 89.0065 156.283 84.8441L156.174 85.0463" fill="#858585"/>
<path d="M150.596 67.0911C158.794 70.9501 159.982 82.342 152.492 85.2742C144.63 88.3497 135.64 78.9885 138.917 71.1692C141.024 66.1642 146.501 65.1615 150.596 67.0911Z" fill="#ADADAD"/>
<path d="M151.733 67.7727C159.629 72.5755 159.241 83.6809 151.127 85.2397C142.558 86.8827 135.311 76.2576 140.35 69.4495C143.24 65.5567 148.262 65.6578 151.733 67.7643" fill="#B3B3B3"/>
<path d="M152.735 68.5647C159.847 74.0416 157.866 83.4702 151.176 84.7846C143.736 86.2423 135.883 76.9991 140.669 69.6685C142.801 66.3993 148.16 65.1775 152.735 68.5647Z" fill="#B8B8B8"/>
<path d="M153.638 69.4667C160.1 75.6598 156.57 84.4901 149.61 84.4901C141.445 84.4901 136.381 74.2442 141.867 68.8432C145.237 65.4728 150.613 66.5682 153.663 69.4667" fill="#BDBDBD"/>
<path d="M153.603 69.6102C159.501 75.0955 156.974 83.9933 149.643 84.0354C141.698 84.0944 137.004 74.3372 142.346 68.9109C145.127 66.0882 150.182 66.3831 153.603 69.6102" fill="#C2C2C2"/>
<path d="M154.345 70.6206C159.131 76.5188 155.761 84.2032 148.708 83.5207C140.518 82.6781 137.991 72.6934 143.265 68.649C146.863 65.8853 151.818 67.5199 154.345 70.6206Z" fill="#C7C7C7"/>
<path d="M154.26 70.7641C159.029 76.6622 155.103 84.3298 147.983 83.0322C140.324 81.6419 138.782 72.247 144.006 68.5902C146.997 66.5005 151.589 67.4695 154.26 70.7641Z" fill="#CCCCCC"/>
<path d="M154.8 71.8681C158.549 78.0611 153.797 83.757 147.975 82.6532C140.231 81.1871 139.616 72.2472 144.04 69.0538C148.151 66.0879 152.937 68.7842 154.8 71.8681Z" fill="#D1D1D1"/>
<path d="M154.631 72.0195C158.111 77.8756 153.502 83.285 147.975 82.2655C140.779 80.9257 139.709 72.8453 144.672 69.121C147.301 67.1409 152.255 67.9751 154.631 72.0195" fill="#D6D6D6"/>
<path d="M154.413 72.1715C157.547 77.5641 153.191 82.6871 147.975 81.954C141.445 81.0356 140.181 73.0141 144.605 69.6774C148.346 66.8969 152.753 69.3825 154.37 72.2052" fill="#DBDBDB"/>
<path d="M154.682 73.3934C156.797 79.0303 151.017 83.2348 146.256 81.1452C140.552 78.6596 141.445 71.2026 146.365 69.2141C149.449 67.9671 153.435 69.964 154.724 73.4271" fill="#E0E0E0"/>
<path d="M154.37 73.5448C154.782 74.6541 154.851 75.8618 154.568 77.0109C154.285 78.1599 153.662 79.1971 152.782 79.9877C151.901 80.7784 150.803 81.2858 149.63 81.4441C148.457 81.6024 147.264 81.4042 146.205 80.8754C140.83 78.5077 141.74 71.6068 146.433 69.652C149.727 68.2954 153.342 70.5873 154.37 73.5448Z" fill="#E6E6E6"/>
<path d="M154.007 73.7052C155.693 78.7186 150.393 82.4935 146.205 80.6398C141.149 78.3985 142.093 71.7841 146.567 70.0568C147.295 69.8027 148.066 69.6957 148.836 69.7419C149.605 69.7882 150.358 69.9867 151.05 70.3262C151.742 70.6656 152.36 71.139 152.868 71.7191C153.375 72.2991 153.763 72.9742 154.007 73.7052" fill="#EBEBEB"/>
<path d="M153.62 73.857C155.204 78.6092 150.182 82.1649 146.205 80.4123C141.815 78.4744 142.11 72.2392 146.669 70.4529C148.038 69.9842 149.536 70.0755 150.838 70.7068C152.14 71.3381 153.14 72.4582 153.62 73.8233" fill="#F0F0F0"/>
<path d="M153.46 75.1539C153.598 76.215 153.373 77.2914 152.823 78.2089C152.272 79.1264 151.428 79.8313 150.427 80.2094C149.496 80.6222 148.462 80.7409 147.462 80.5497C146.462 80.3585 145.545 79.8664 144.832 79.1393C141.597 76.3588 143.383 71.1768 147.773 70.6039C148.445 70.5254 149.126 70.5809 149.777 70.7672C150.427 70.9534 151.035 71.2668 151.563 71.689C152.092 72.1113 152.532 72.6342 152.858 73.2274C153.183 73.8207 153.388 74.4726 153.46 75.1454" fill="#F5F5F5"/>
<path d="M153.09 75.2639C153.15 76.0592 153.017 76.8572 152.703 77.5905C152.389 78.3238 151.903 78.9707 151.287 79.4768C149.93 80.3194 149.897 80.3194 147.916 80.4458C147.225 80.3072 146.554 80.0807 145.919 79.7717C141.007 76.216 144.184 71.9019 146.762 71.1014C147.448 70.9108 148.167 70.8697 148.87 70.981C149.573 71.0922 150.244 71.3532 150.838 71.7463C151.431 72.1394 151.934 72.6553 152.311 73.2593C152.688 73.8632 152.93 74.5411 153.023 75.247" fill="#FAFAFA"/>
<path d="M152.786 75.3393C152.878 76.2322 152.698 77.1321 152.27 77.9208C151.841 78.7095 151.184 79.3501 150.385 79.7584C149.585 80.1668 148.681 80.3238 147.791 80.2088C146.901 80.0938 146.066 79.7121 145.396 79.1141C141.546 76.0723 144.461 71.2611 148.017 71.2695C149.525 71.2695 152.474 72.466 152.786 75.3393Z" fill="white"/>
<path d="M152.475 75.4243C152.578 76.3749 152.355 77.3324 151.842 78.1393C151.329 78.9463 150.557 79.5548 149.652 79.8647C148.833 80.1142 147.959 80.1262 147.133 79.8996C146.307 79.6729 145.562 79.2168 144.984 78.584C144.41 77.9916 144.026 77.2402 143.883 76.4272C143.741 75.6142 143.845 74.7771 144.184 74.0244C144.523 73.2716 145.08 72.638 145.783 72.2055C146.486 71.7731 147.303 71.5617 148.127 71.5989C149.177 71.6525 150.178 72.0596 150.968 72.7541C151.757 73.4486 152.288 74.3897 152.475 75.4243" fill="white"/>
<path d="M152.154 75.4909C152.584 79.9145 147.486 80.9425 145.22 78.5832C144.632 78.0283 144.231 77.3048 144.071 76.5125C143.912 75.7201 144.001 74.8978 144.329 74.1586C144.656 73.4195 145.204 72.7999 145.897 72.3851C146.591 71.9703 147.396 71.7808 148.202 71.8425C149.175 71.9158 150.094 72.315 150.811 72.9756C151.528 73.6362 152.001 74.5195 152.154 75.4825" fill="white"/>
<path d="M151.91 75.55C152.247 77.7912 150.848 78.6591 149.626 79.4343C149.065 79.6374 148.467 79.717 147.872 79.6675C147.277 79.6181 146.7 79.4408 146.18 79.1478C145.472 78.7452 144.904 78.1353 144.553 77.4001C144.202 76.6649 144.085 75.8398 144.217 75.036C144.394 74.3484 144.749 73.7196 145.246 73.2124C145.743 72.7052 146.364 72.3374 147.048 72.1459C148.531 71.8088 151.505 72.8368 151.91 75.5162" fill="white"/>
<path d="M151.733 76.806C151.533 77.2649 151.308 77.7122 151.059 78.1457C150.628 78.5611 150.153 78.9284 149.643 79.2411C149.111 79.4658 148.534 79.5611 147.958 79.5191C147.299 79.4351 146.669 79.1988 146.118 78.8287C145.566 78.4587 145.109 77.9652 144.781 77.3874C144.495 76.8157 144.37 76.1767 144.42 75.5392C144.47 74.9017 144.693 74.29 145.065 73.7698C145.436 73.2497 145.943 72.8409 146.53 72.5875C147.117 72.3341 147.763 72.2457 148.396 72.3318C150.477 72.6267 152.196 74.9186 151.766 76.7976" fill="white"/>
<path d="M151.463 76.8482C150.856 79.1063 148.716 79.2833 147.907 79.376C147.284 79.3527 146.68 79.1477 146.172 78.7862C145.707 78.3723 145.287 77.9121 144.916 77.4127C144.626 76.8646 144.496 76.2458 144.541 75.6272C144.586 75.0086 144.804 74.4152 145.171 73.915C145.538 73.4147 146.038 73.0278 146.614 72.7985C147.19 72.5692 147.82 72.5068 148.43 72.6184C148.564 72.6184 149.955 73.2756 149.963 73.284C150.437 73.6138 150.833 74.0421 151.126 74.5395C151.491 75.2597 151.609 76.0796 151.463 76.8735" fill="white"/>
<path d="M151.219 76.8896C150.907 77.7245 150.31 78.4226 149.534 78.8613C149.005 79.0983 148.428 79.2079 147.849 79.1815C147.222 79.1513 146.619 78.9374 146.113 78.5664C145.681 78.251 145.32 77.8493 145.051 77.3867C144.736 76.8528 144.591 76.2356 144.635 75.6172C144.678 74.9987 144.909 74.4081 145.296 73.9237C145.668 73.4669 146.159 73.1214 146.715 72.9252C147.271 72.729 147.87 72.6897 148.447 72.8115C148.988 72.9706 149.499 73.2214 149.955 73.553C150.048 73.6119 150.848 74.5472 150.857 74.5556C151.064 74.9033 151.199 75.2895 151.252 75.6907C151.306 76.0918 151.277 76.4997 151.169 76.8896" fill="white"/>
<path d="M150.974 76.9319C150.775 77.5793 150.361 78.1394 149.8 78.5193C149.239 78.8993 148.565 79.0765 147.89 79.0216C147.292 78.8512 146.711 78.6255 146.155 78.3475C145.809 78.0869 145.522 77.7568 145.312 77.3785C144.983 76.8465 144.833 76.2231 144.885 75.5998C144.937 74.9765 145.187 74.3861 145.598 73.9155C146.018 73.4259 146.591 73.0932 147.225 72.9718C147.672 72.8791 148.134 72.8964 148.573 73.0223C148.573 73.0223 151.842 74.084 151 76.9319" fill="white"/>
<path d="M150.823 76.3339C150.831 76.5467 150.809 76.7595 150.756 76.9658C150.496 77.4661 150.157 77.9214 149.753 78.314C149.542 78.4994 149.5 78.5331 147.883 78.8532C147.407 78.7804 146.951 78.6141 146.54 78.3639C146.129 78.1137 145.772 77.7846 145.489 77.3956C145.145 76.8642 144.988 76.2326 145.044 75.6018C145.101 74.9709 145.367 74.3772 145.801 73.9156C146.232 73.581 146.716 73.3217 147.234 73.1489C147.692 73.08 148.16 73.1087 148.607 73.2331C149.327 73.5376 149.959 74.0186 150.444 74.6318C150.619 74.8717 150.744 75.1451 150.809 75.435C150.874 75.7249 150.879 76.0252 150.823 76.317" fill="white"/>
<path d="M150.528 76.9996C150.312 77.5071 149.962 77.9467 149.517 78.2719C149.441 78.3224 148.042 78.6763 147.874 78.6932C147.009 78.5149 146.229 78.0521 145.658 77.3787C145.322 76.8651 145.169 76.2537 145.222 75.6425C145.276 75.0314 145.533 74.4559 145.953 74.0083C145.953 74.0083 147.174 73.3511 147.267 73.3258C147.737 73.271 148.213 73.314 148.666 73.4522C149.508 73.6797 151.235 75.2975 150.528 76.9996" fill="white"/>
<path d="M150.309 77.0329C150.124 77.4415 149.833 77.7934 149.467 78.0524C149.382 78.103 147.899 78.5327 147.832 78.5243C147.765 78.5159 146.147 77.6817 146.147 77.6817C145.84 77.3139 145.614 76.8863 145.481 76.4262C145.369 76.0519 145.355 75.6547 145.443 75.2736C145.53 74.8926 145.714 74.5407 145.978 74.2523C146.389 73.9508 146.833 73.6965 147.301 73.494C147.782 73.4379 148.269 73.4927 148.725 73.6541C149.173 73.9734 149.603 74.3165 150.014 74.6821C150.221 75.0246 150.375 75.3968 150.469 75.7859C150.517 76.2021 150.465 76.6237 150.318 77.016" fill="white"/>
<path d="M150.048 77.0587C149.919 77.36 149.709 77.6196 149.442 77.8086C148.97 78.1547 148.4 78.3407 147.815 78.3394C147.193 78.2005 146.615 77.9112 146.13 77.4968C145.872 77.1023 145.676 76.6703 145.549 76.2161C145.549 76.2161 145.549 74.868 145.987 74.5309C146.411 74.2155 146.859 73.9337 147.327 73.6883C147.821 73.6166 148.325 73.6928 148.776 73.9074C149.17 74.1113 149.515 74.3989 149.787 74.75C149.995 75.0983 150.156 75.4722 150.267 75.8622C150.352 76.2786 150.286 76.7115 150.082 77.084" fill="white"/>
<path d="M149.854 77.092C149.767 77.2965 149.624 77.472 149.441 77.5976C148.986 77.8335 148.329 78.2548 147.832 78.1453C147.26 78.0105 146.729 77.742 146.281 77.3617C146.021 77.0103 145.829 76.6129 145.717 76.1904C145.7 75.7135 145.798 75.2397 146.003 74.8086C146.343 74.365 146.815 74.0405 147.351 73.8817C147.862 73.8472 148.373 73.946 148.834 74.1682C149.121 74.3058 149.372 74.5076 149.567 74.758C149.842 75.0745 150.016 75.4656 150.067 75.8813C150.118 76.2971 150.044 76.7186 149.854 77.092" fill="white"/>
<path d="M149.618 77.1172C149.577 77.222 149.507 77.3127 149.416 77.3784C148.931 77.681 148.389 77.879 147.823 77.9598C147.375 77.8602 146.959 77.6518 146.61 77.3531C146.402 77.1653 146.228 76.9429 146.096 76.6959C145.963 76.435 145.894 76.1462 145.894 75.8533C145.894 75.5604 145.963 75.2716 146.096 75.0107C146.426 74.5727 146.881 74.2463 147.402 74.0754C147.924 74.061 148.442 74.1738 148.91 74.404C149.087 74.4855 149.241 74.6101 149.357 74.7664C149.616 75.0912 149.795 75.4721 149.879 75.8786C149.904 76.3 149.82 76.7207 149.635 77.1004" fill="white"/>
<path d="M149.39 77.1422C148.964 77.5495 148.396 77.7734 147.806 77.7658C147.49 77.7059 147.198 77.5568 146.964 77.336C146.624 77.0205 146.339 76.6503 146.121 76.2407C146.174 75.8173 146.293 75.4049 146.475 75.0189C146.718 74.6804 147.064 74.4293 147.461 74.3027C147.992 74.3164 148.515 74.4428 148.994 74.6735C149.062 74.7019 149.119 74.7524 149.154 74.8167C149.416 75.14 149.603 75.5168 149.702 75.9205C149.716 76.3439 149.623 76.764 149.432 77.1422" fill="white"/>
<path d="M149.307 76.6286C149.131 76.8801 148.905 77.0933 148.645 77.2555C148.384 77.4177 148.093 77.5255 147.79 77.5723C147.596 77.5461 147.415 77.4574 147.276 77.3195C146.956 77.0162 146.433 76.6117 146.357 76.1736C146.368 75.7466 146.519 75.3351 146.787 75.0024C146.943 74.7687 147.176 74.5961 147.444 74.5137C147.897 74.5278 148.34 74.643 148.742 74.8507C148.86 74.9132 148.961 75.0028 149.037 75.1119C149.207 75.3209 149.321 75.5699 149.368 75.8353C149.416 76.1007 149.394 76.3737 149.307 76.6286" fill="white"/>
<path d="M149.205 76.0977C148.891 76.5438 148.511 76.9388 148.076 77.2689C147.985 77.3408 147.873 77.382 147.756 77.3868C147.495 77.3868 146.661 76.1735 146.652 76.1651C146.693 75.7361 146.854 75.3273 147.116 74.9854C147.153 74.9223 147.203 74.8673 147.263 74.8239C147.322 74.7805 147.39 74.7494 147.461 74.7327C147.698 74.7057 147.935 74.7689 148.127 74.9096C148.491 75.1821 148.834 75.4806 149.155 75.8028C149.187 75.8437 149.209 75.8922 149.218 75.9437C149.227 75.9953 149.222 76.0482 149.205 76.0977" fill="white"/>
<path d="M147.748 77.0583C147.394 77.0583 147.04 76.5021 146.989 76.1483C146.989 76.1483 147.461 74.9518 147.503 74.9434H147.554C147.925 75.2551 148.767 75.5079 148.792 75.9966C148.755 76.2604 148.633 76.5049 148.444 76.6933C148.256 76.8817 148.011 77.0039 147.748 77.0414" fill="white"/>
<path d="M147.697 76.6039C147.52 76.6039 147.334 76.3175 147.309 76.1321C147.284 75.9467 147.368 75.5338 147.579 75.4917C147.789 75.4496 148.236 75.8035 148.244 76.0647C148.224 76.2017 148.159 76.3284 148.06 76.4256C147.962 76.5229 147.834 76.5854 147.697 76.6039" fill="white"/>
<path d="M147.654 76.1485V76.0977C147.654 76.0977 147.705 76.0976 147.705 76.14C147.708 76.1467 147.71 76.154 147.71 76.1613C147.71 76.1686 147.708 76.1758 147.705 76.1825" fill="white"/>
<path d="M44.7243 20.908C44.6983 20.8562 44.6758 20.8027 44.6569 20.7479L44.4294 20.2339L44.3536 20.0654L44.303 19.9727C44.3046 19.9531 44.3046 19.9334 44.303 19.9137C44.2271 19.7549 44.1427 19.6001 44.0502 19.4503L43.9744 19.3155L43.8817 19.1638V19.0795C43.8417 19.0063 43.7966 18.9359 43.7469 18.8689L43.6205 18.6835L43.4098 18.3802L43.3593 18.3128L43.3004 18.2454L43.1908 18.1022C43.056 17.9336 42.9211 17.7651 42.7779 17.605L42.7021 17.5292C42.5672 17.3775 42.424 17.2343 42.2808 17.0995L42.1881 17.0068L42.1123 16.9394C42.0028 16.8383 41.8848 16.7287 41.7584 16.6276L41.5983 16.4928L41.5056 16.417L41.0927 16.1052L40.9242 15.9872L40.8315 15.9283L40.7642 15.8861L40.5282 15.7345L40.3344 15.6165L40.0647 15.4564L39.9889 15.4143H39.9047L39.7025 15.3047L39.3148 15.1109C39.3148 15.1109 39.2474 15.111 39.2137 15.0688H39.1463H39.079C38.8515 14.9677 38.6239 14.875 38.388 14.7908H38.3375L38.2026 14.7486L37.6718 14.5717L37.141 14.1672H37.0652L36.568 14.0409H36.4248L36.1215 13.9819H36.0204H35.936L35.6496 13.9313H35.4389L34.9165 13.8639H34.8491H34.6132H34.3519L2.95703 11.1592V13.232V13.9398V15.389C2.95703 15.5238 2.95703 15.6502 2.95703 15.7766V18.0516C2.95703 18.2285 2.95703 18.3971 2.95703 18.5571L3.05814 23.3009V23.4358L3.20131 30.1175C3.20131 30.3534 3.20131 30.6062 3.20131 30.859L3.29399 35.1478C3.29399 35.3669 3.29399 35.5944 3.29399 35.8303V36.2347C3.29399 36.7487 3.29399 37.2627 3.29399 37.7009V37.8104L3.34459 39.9506C3.34459 40.0685 3.34459 40.1949 3.34459 40.3129V41.0544C3.34459 41.5431 3.34459 42.0149 3.34459 42.4278V42.8238C3.34459 42.9502 3.34459 43.0766 3.34459 43.203V43.54C3.34459 43.6243 3.34459 43.717 3.34459 43.8096V44.0793C3.34459 44.2815 3.40356 44.4837 3.43726 44.6775C3.44135 44.7026 3.44135 44.7282 3.43726 44.7533V44.8798V44.9303C3.48782 45.2084 3.54677 45.478 3.61418 45.7729C3.6179 45.8121 3.6179 45.8516 3.61418 45.8909V45.8909L3.69008 46.1352C3.69008 46.27 3.75749 46.4048 3.79962 46.5312L3.90073 46.8009V46.9104L3.97654 47.121C3.97654 47.1716 3.9765 47.2306 4.04391 47.2896C4.11131 47.3485 4.12819 47.4834 4.17032 47.5845C4.21244 47.6856 4.28825 47.8625 4.35566 48.0058C4.35265 48.0281 4.35265 48.0508 4.35566 48.0732C4.35566 48.149 4.43151 48.2249 4.47364 48.3007C4.51577 48.3765 4.60845 48.5703 4.68428 48.6967L4.81069 48.9158L4.9118 49.0843L5.08028 49.3539L5.27416 49.632L5.4342 49.8595L5.51001 49.9522C5.57742 50.0364 5.64482 50.1291 5.72066 50.2134C5.79649 50.2976 5.89766 50.4324 5.99034 50.5335L6.06615 50.6262V50.6684L6.18412 50.7863L6.47901 51.0897L6.71496 51.3172L6.7739 51.3677V51.4099L7.00141 51.6036L7.25423 51.8143C7.33204 51.8807 7.41356 51.9426 7.49852 51.9997L7.6671 52.126L7.86088 52.2693L8.24843 52.5305L8.44221 52.6569L8.90568 52.9181L9.11633 53.0361L9.26804 53.1034L9.47869 53.2046L9.82408 53.3731H9.88312L10.2033 53.4995L10.414 53.5837L10.5656 53.6427L10.8268 53.727L11.3324 53.8955H11.3997L11.6272 53.9545L12.1076 54.0809L12.3772 54.1398H12.6047L12.9333 54.2072L13.304 54.2578L13.6495 54.3168H13.7928L14.1803 54.3589L14.669 54.401H16.5143H16.9356H17.1631H17.4749L17.8962 54.3589H18.1489H18.2416H18.3595H18.4607L18.8735 54.2999L19.4803 54.1904L19.8763 54.1146H19.9942H20.0616L20.5419 54.005L20.8873 53.9292L21.4182 53.7859L21.5952 53.7438L21.9237 53.6511C22.2944 53.5416 22.6737 53.4236 23.0444 53.2888L23.2129 53.2298C23.5668 53.1034 23.9207 52.9771 24.2746 52.8338L24.4263 52.7748L24.679 52.6653L25.5216 52.3283L25.766 52.2187L25.9513 52.1345L26.7097 51.7637L26.9961 51.6289L27.1057 51.5699L27.8725 51.1571L28.1505 51.0054H28.2011C28.5213 50.82 28.8414 50.6346 29.1532 50.4409L29.2459 50.3903C29.5913 50.1796 29.9283 49.9606 30.2654 49.7415L31.049 49.2022L31.2007 49.1011L32.0432 48.4608H32.0854L32.2876 48.3007L32.8269 47.8794L32.9533 47.7783L33.206 47.5676L33.5346 47.298L33.8128 47.0621L34.0234 46.8683L34.1666 46.7503L34.7649 46.211L34.8407 46.1436L35.2451 45.756C35.3547 45.6634 35.4558 45.5623 35.5569 45.4612L35.6749 45.3432L35.7507 45.2673L36.2226 44.7871L36.3995 44.6101L36.5175 44.4837L36.6607 44.3321L37.082 43.8686L37.2083 43.7338L37.3094 43.6159C37.3769 43.54 37.4443 43.4726 37.5033 43.3968L37.9162 42.9249C37.9339 42.8933 37.9566 42.8649 37.9836 42.8407C38.0096 42.8026 38.0377 42.766 38.0678 42.7311L38.3122 42.4447L38.7335 41.9138C38.8767 41.7453 39.0115 41.5684 39.1463 41.3914L39.3401 41.1134L39.4665 40.9448L39.5676 40.81L39.8963 40.3382C39.9721 40.2371 40.0479 40.1275 40.1153 40.018C40.1192 39.9985 40.1192 39.9785 40.1153 39.959L40.2333 39.7821C40.4355 39.4703 40.6377 39.1586 40.8315 38.8468L40.9411 38.6783L41.0927 38.4255L41.3961 37.9031L41.6573 37.4312L41.9437 36.9088L42.0786 36.656L42.1544 36.4875C42.3734 36.0578 42.5841 35.6449 42.7779 35.1731C42.7924 35.1234 42.8122 35.0754 42.8369 35.0298C42.9633 34.7349 43.0896 34.4316 43.2076 34.1367C43.3087 33.8755 43.4015 33.6059 43.4942 33.3447L43.5531 33.193C43.6711 32.8644 43.7722 32.5442 43.8733 32.2156L43.9997 31.7437L44.1513 31.2129C44.2412 30.8422 44.3255 30.4714 44.4041 30.1007C44.4005 30.0812 44.4005 30.0612 44.4041 30.0417V29.8647C44.4715 29.5109 44.5305 29.1485 44.581 28.7946V28.5924C44.6067 28.4447 44.6236 28.2956 44.6316 28.1459C44.6316 27.8425 44.6906 27.5392 44.699 27.2443C44.699 27.16 44.699 27.0842 44.699 26.9999C44.6952 26.9635 44.6952 26.9268 44.699 26.8904V26.3343C44.7032 26.2529 44.7032 26.1713 44.699 26.0899V25.9551C44.699 25.7473 44.699 25.5366 44.699 25.3232V25.1294C44.7031 25.0733 44.7031 25.017 44.699 24.9609L44.6485 24.4132C44.6448 24.3852 44.6448 24.3569 44.6485 24.3289C44.6485 24.3289 44.6485 24.2784 44.6485 24.2531C44.6525 24.2167 44.6525 24.1799 44.6485 24.1435C44.6485 23.9834 44.6484 23.8318 44.581 23.6801C44.5136 23.5285 44.581 23.6043 44.581 23.5621C44.5848 23.5398 44.5848 23.5171 44.581 23.4948V23.3347C44.581 23.2335 44.5811 23.124 44.5137 23.0229L44.4379 22.7196C44.4418 22.6691 44.4418 22.6184 44.4379 22.5679L44.3872 22.3741C44.3825 22.3265 44.3825 22.2785 44.3872 22.2309C44.3858 22.2028 44.3858 22.1747 44.3872 22.1466C44.3872 22.0455 44.3283 21.936 44.2946 21.8348C44.2609 21.7337 44.2946 21.7169 44.2272 21.6495C44.1598 21.5821 44.1176 21.3208 44.0502 21.1608C44.0502 21.1608 44.0502 21.1186 44.0502 21.1018C44.0502 21.0849 44.7243 20.908 44.7243 20.908Z" fill="white" stroke="black" stroke-miterlimit="10"/>
<path d="M19.1603 72.5085C16.3555 72.4175 13.6287 73.4406 11.5761 75.3543C9.52347 77.2679 8.31206 79.9164 8.20663 82.7207L6.95117 117.166H7.16182C7.56401 119.576 8.78589 121.774 10.6211 123.387C12.4562 125 14.7921 125.931 17.234 126.021C19.6758 126.111 22.074 125.355 24.0232 123.882C25.9723 122.408 27.3529 120.307 27.9317 117.933H28.1423L29.4062 83.4875C29.4557 82.0935 29.2299 80.7035 28.7416 79.3969C28.2532 78.0903 27.512 76.8928 26.5603 75.873C25.6086 74.8533 24.4652 74.0312 23.1954 73.4538C21.9256 72.8765 20.5544 72.5553 19.1603 72.5085V72.5085Z" fill="white" stroke="black" stroke-miterlimit="10"/>
<path d="M156.419 39.858L131.815 64.369C129.832 66.3114 127.27 67.554 124.518 67.9079C116.319 69.0623 107.666 63.122 105.206 54.6286C103.622 49.1855 104.961 44.0288 108.289 40.7174L132.893 16.2148C129.573 19.5178 128.234 24.6829 129.809 30.1176C132.278 38.611 140.923 44.5512 149.122 43.4053C151.874 43.0461 154.436 41.801 156.419 39.858" fill="#333333"/>
<path d="M156.419 39.858L131.815 64.369C129.832 66.3114 127.27 67.554 124.518 67.9079C116.319 69.0623 107.666 63.122 105.206 54.6286C103.622 49.1855 104.961 44.0288 108.289 40.7174L132.893 16.2148C129.573 19.5178 128.234 24.6829 129.809 30.1176C132.278 38.611 140.923 44.5512 149.122 43.4053C151.874 43.0461 154.436 41.801 156.419 39.858" stroke="black" stroke-miterlimit="10"/>
<path d="M140.19 12.6677C148.389 11.5133 157.042 17.462 159.494 25.9469C161.946 34.4319 157.32 42.2511 149.122 43.4055C140.923 44.5598 132.27 38.6111 129.809 30.1178C127.349 21.6244 131.992 13.822 140.19 12.6677Z" fill="#FCFCFC" stroke="black" stroke-miterlimit="10"/>
<path d="M135.623 122.162L130.491 132.804L52.7959 39.1839L57.9189 28.542L135.623 122.162Z" fill="#333333" stroke="black" stroke-miterlimit="10"/>
<path d="M79.1944 14.125L156.898 107.745L135.623 122.162L57.9189 28.5417L79.1944 14.125Z" fill="white" stroke="black" stroke-miterlimit="10"/>
<path d="M156.899 107.745L151.776 118.387L130.492 132.804L135.624 122.162L156.899 107.745Z" fill="black"/>
<path d="M165.476 117.292L160.345 127.934L139.069 142.342L144.192 131.7L165.476 117.292Z" fill="black"/>
<path d="M144.192 131.7L139.069 142.342L132.033 133.874L137.165 123.232L144.192 131.7Z" fill="#333333" stroke="black" stroke-miterlimit="10"/>
<path d="M158.44 108.815L165.476 117.292L144.192 131.7L137.165 123.232L158.44 108.815Z" fill="white" stroke="black" stroke-miterlimit="10"/>
<path d="M59.4696 107.274L57.7845 108.116L52.7289 110.644C41.7752 114.015 34.1919 105.589 34.1919 105.589C28.8077 104.822 24.8307 94.9298 24.1735 93.2025C24.1145 93.0424 24.0808 92.8739 24.0218 92.7138C17.3401 74.4127 24.0808 70.1998 24.0808 70.1998C23.2382 41.5516 35.8771 23.8572 35.8771 23.8572C61.1548 -12.3743 100.757 5.32014 100.757 5.32014C142.044 25.5424 127.72 69.3572 127.72 69.3572C124.349 85.3664 108.34 103.061 108.34 103.061C106.655 110.644 98.2289 116.542 98.2289 116.542C86.4326 124.968 79.6919 119.07 79.6919 119.07L66.2104 117.385L59.8909 108.538C59.5799 108.027 59.339 107.478 59.1748 106.903C57.953 102.8 60.4892 97.8958 63.3877 93.9356C65.3626 91.3018 67.5767 88.8563 70.002 86.6303C89.3817 66.4081 103.706 68.0933 103.706 68.0933L110.868 78.6257C110.868 78.6257 136.988 19.6442 83.0622 8.69051C83.0622 8.69051 51.8863 3.63495 36.7197 37.3387C34.5672 43.0332 33.1514 48.9795 32.5067 55.0331C32.5067 55.0331 45.1456 46.6072 53.5715 59.2461C53.5715 59.2461 63.6826 71.8849 63.6826 93.7923" fill="white"/>
<path d="M59.4696 107.274L57.7845 108.116L52.7289 110.644C41.7752 114.015 34.1919 105.589 34.1919 105.589C28.8077 104.822 24.8307 94.9298 24.1735 93.2025C24.1145 93.0424 24.0808 92.8739 24.0218 92.7138C17.3401 74.4127 24.0808 70.1998 24.0808 70.1998C23.2382 41.5516 35.8771 23.8572 35.8771 23.8572C61.1548 -12.3743 100.757 5.32014 100.757 5.32014C142.044 25.5424 127.72 69.3572 127.72 69.3572C124.349 85.3664 108.34 103.061 108.34 103.061C106.655 110.644 98.2289 116.542 98.2289 116.542C86.4326 124.968 79.6919 119.07 79.6919 119.07L66.2104 117.385L59.8909 108.538C59.5799 108.027 59.339 107.478 59.1748 106.903C57.953 102.8 60.4892 97.8958 63.3877 93.9356C65.3626 91.3018 67.5767 88.8563 70.002 86.6303C89.3817 66.4081 103.706 68.0933 103.706 68.0933L110.868 78.6257C110.868 78.6257 136.988 19.6442 83.0622 8.69051C83.0622 8.69051 51.8863 3.63495 36.7197 37.3387C34.5672 43.0332 33.1514 48.9795 32.5067 55.0331C32.5067 55.0331 45.1456 46.6072 53.5715 59.2461C53.5715 59.2461 63.6826 71.8849 63.6826 93.7923" stroke="black" stroke-miterlimit="10"/>
<path d="M32.5065 55.0332C32.5065 55.0332 23.2379 58.4036 24.0805 70.1999C24.9231 81.9962 26.6083 88.7369 34.4108 106.01" fill="white"/>
<path d="M32.5065 55.0332C32.5065 55.0332 23.2379 58.4036 24.0805 70.1999C24.9231 81.9962 26.6083 88.7369 34.4108 106.01" stroke="black" stroke-miterlimit="10"/>
<path d="M110.825 78.373C110.825 78.373 95.6588 80.311 79.6495 96.3203C79.6495 96.3203 67.0106 107.274 66.168 117.385" fill="white"/>
<path d="M110.825 78.373C110.825 78.373 95.6588 80.311 79.6495 96.3203C79.6495 96.3203 67.0106 107.274 66.168 117.385" stroke="black" stroke-miterlimit="10"/>
<path d="M110.867 78.626C110.867 78.626 104.127 92.9501 99.0711 95.4778C99.0711 95.4778 88.9601 97.163 83.9045 103.061C83.9045 103.061 74.636 113.172 79.6915 119.07" fill="white"/>
<path d="M110.867 78.626C110.867 78.626 104.127 92.9501 99.0711 95.4778C99.0711 95.4778 88.9601 97.163 83.9045 103.061C83.9045 103.061 74.636 113.172 79.6915 119.07" stroke="black" stroke-miterlimit="10"/>
<path d="M59.4696 107.274L57.7845 108.116L52.7289 110.644C41.7752 114.015 34.1919 105.589 34.1919 105.589C28.8077 104.822 24.8307 94.9298 24.1735 93.2025C24.1145 93.0424 24.0808 92.8739 24.0218 92.7138C17.3401 74.4127 24.0808 70.1998 24.0808 70.1998C23.2382 41.5516 35.8771 23.8572 35.8771 23.8572C61.1548 -12.3743 100.757 5.32014 100.757 5.32014C142.044 25.5424 127.72 69.3572 127.72 69.3572C124.349 85.3664 108.34 103.061 108.34 103.061C106.655 110.644 98.2289 116.542 98.2289 116.542C86.4326 124.968 79.6919 119.07 79.6919 119.07L66.2104 117.385L59.8909 108.538C59.5799 108.027 59.339 107.478 59.1748 106.903C57.953 102.8 60.4892 97.8958 63.3877 93.9356C65.3626 91.3018 67.5767 88.8563 70.002 86.6303C89.3817 66.4081 103.706 68.0933 103.706 68.0933L110.868 78.6257C110.868 78.6257 136.988 19.6442 83.0622 8.69051C83.0622 8.69051 51.8863 3.63495 36.7197 37.3387C34.5672 43.0332 33.1514 48.9795 32.5067 55.0331C32.5067 55.0331 45.1456 46.6072 53.5715 59.2461C53.5715 59.2461 63.6826 71.8849 63.6826 93.7923" fill="black"/>
<path d="M59.4696 107.274L57.7845 108.116L52.7289 110.644C41.7752 114.015 34.1919 105.589 34.1919 105.589C28.8077 104.822 24.8307 94.9298 24.1735 93.2025C24.1145 93.0424 24.0808 92.8739 24.0218 92.7138C17.3401 74.4127 24.0808 70.1998 24.0808 70.1998C23.2382 41.5516 35.8771 23.8572 35.8771 23.8572C61.1548 -12.3743 100.757 5.32014 100.757 5.32014C142.044 25.5424 127.72 69.3572 127.72 69.3572C124.349 85.3664 108.34 103.061 108.34 103.061C106.655 110.644 98.2289 116.542 98.2289 116.542C86.4326 124.968 79.6919 119.07 79.6919 119.07L66.2104 117.385L59.8909 108.538C59.5799 108.027 59.339 107.478 59.1748 106.903C57.953 102.8 60.4892 97.8958 63.3877 93.9356C65.3626 91.3018 67.5767 88.8563 70.002 86.6303C89.3817 66.4081 103.706 68.0933 103.706 68.0933L110.868 78.6257C110.868 78.6257 136.988 19.6442 83.0622 8.69051C83.0622 8.69051 51.8863 3.63495 36.7197 37.3387C34.5672 43.0332 33.1514 48.9795 32.5067 55.0331C32.5067 55.0331 45.1456 46.6072 53.5715 59.2461C53.5715 59.2461 63.6826 71.8849 63.6826 93.7923" stroke="white" stroke-miterlimit="10"/>
<path d="M32.5065 55.0332C32.5065 55.0332 23.2379 58.4036 24.0805 70.1999C24.9231 81.9962 26.6083 88.7369 34.4108 106.01" fill="black"/>
<path d="M32.5065 55.0332C32.5065 55.0332 23.2379 58.4036 24.0805 70.1999C24.9231 81.9962 26.6083 88.7369 34.4108 106.01" stroke="white" stroke-miterlimit="10"/>
<path d="M110.825 78.373C110.825 78.373 95.6588 80.311 79.6495 96.3203C79.6495 96.3203 67.0106 107.274 66.168 117.385" fill="black"/>
<path d="M110.825 78.373C110.825 78.373 95.6588 80.311 79.6495 96.3203C79.6495 96.3203 67.0106 107.274 66.168 117.385" stroke="white" stroke-miterlimit="10"/>
<path d="M110.867 78.626C110.867 78.626 104.127 92.9501 99.0711 95.4778C99.0711 95.4778 88.9601 97.163 83.9045 103.061C83.9045 103.061 74.636 113.172 79.6915 119.07" fill="black"/>
<path d="M110.867 78.626C110.867 78.626 104.127 92.9501 99.0711 95.4778C99.0711 95.4778 88.9601 97.163 83.9045 103.061C83.9045 103.061 74.636 113.172 79.6915 119.07" stroke="white" stroke-miterlimit="10"/>
<path d="M38.9437 130.445C38.9671 130.384 38.9868 130.322 39.0026 130.259C39.0953 129.998 39.1711 129.745 39.2386 129.484C39.306 129.223 39.3481 129.114 39.3903 128.928C39.4324 128.743 39.4913 128.397 39.5334 128.128C39.5756 127.858 39.6008 127.782 39.6177 127.614C39.6177 127.319 39.6177 127.032 39.6177 126.771C39.6177 126.628 39.6177 126.485 39.6177 126.341C39.6126 125.918 39.5732 125.495 39.4998 125.078C39.2714 123.753 38.7354 122.5 37.935 121.42C37.1345 120.34 36.0918 119.463 34.8907 118.859L31.0486 116.77C32.2496 117.375 33.2925 118.252 34.0942 119.331C34.8959 120.411 35.4341 121.663 35.666 122.988C35.7324 123.406 35.769 123.828 35.7755 124.252C35.7755 124.395 35.7755 124.538 35.7755 124.681C35.7755 124.968 35.7755 125.254 35.7755 125.524C35.7755 125.794 35.7165 125.87 35.6913 126.038C35.666 126.207 35.6154 126.569 35.548 126.839C35.4806 127.108 35.4469 127.209 35.3964 127.395C35.3458 127.58 35.2531 127.909 35.1604 128.17C35.0677 128.431 34.9244 128.819 34.7812 129.139L34.7307 129.265C34.5622 129.653 34.3599 130.04 34.1493 130.42L33.9892 130.698C33.8038 131.018 33.6101 131.33 33.3994 131.641L33.2477 131.877C32.9669 132.27 32.6719 132.666 32.363 133.065C32.0681 133.419 31.7563 133.773 31.4361 134.11C31.335 134.228 31.2255 134.346 31.1159 134.456C30.8126 134.776 30.4924 135.079 30.1638 135.382C30.1174 135.434 30.0668 135.482 30.0122 135.526C29.6162 135.888 29.1696 136.242 28.7652 136.579L28.4281 136.832C28.1079 137.076 27.7877 137.312 27.4507 137.539C26.917 137.905 26.3553 138.25 25.7655 138.576L25.5296 138.702C25.0409 138.98 24.5437 139.242 24.0297 139.486C23.7011 139.646 23.3726 139.789 23.0355 139.932L22.53 140.16C22.0076 140.373 21.4767 140.567 20.9375 140.741C19.5665 141.203 18.1564 141.539 16.7245 141.744C16.1515 141.828 15.587 141.87 15.0393 141.904C14.8792 141.904 14.7106 141.904 14.5505 141.904C14.1377 141.904 13.708 141.904 13.3373 141.904H12.8654C12.3437 141.883 11.8234 141.835 11.3066 141.761C10.8214 141.692 10.3404 141.597 9.86579 141.474L9.33495 141.399C9.0906 141.331 8.84627 141.264 8.61877 141.179L8.12167 140.994L7.46442 140.716C7.2285 140.606 7.00094 140.505 6.77344 140.387L10.6157 142.477L11.037 142.688L11.3066 142.806L11.9638 143.084L12.4525 143.269C12.6884 143.353 12.9329 143.421 13.1772 143.488C13.2783 143.488 13.3794 143.564 13.489 143.589H13.6575C14.1319 143.712 14.6129 143.808 15.0983 143.876V143.876C15.6151 143.95 16.1354 143.997 16.657 144.019H17.1289C17.525 144.019 17.9715 144.019 18.3422 144.019H18.831C19.3955 144.019 19.9601 143.943 20.5162 143.859C21.948 143.653 23.3582 143.318 24.7291 142.856C25.2909 142.676 25.8217 142.483 26.3216 142.275L26.8272 142.047C27.1052 141.929 27.3833 141.82 27.6698 141.693L27.8382 141.601C28.3438 141.356 28.8494 141.095 29.3381 140.817L29.574 140.691C30.1358 140.359 30.6975 140.014 31.2592 139.654L31.3688 139.587L32.2114 138.947L32.5484 138.694C32.9697 138.365 33.391 138.028 33.7617 137.674L33.9134 137.531C34.242 137.228 34.5622 136.924 34.8655 136.604C34.9751 136.495 35.0762 136.377 35.1857 136.259C35.2953 136.141 35.4216 136.014 35.5311 135.888C35.6407 135.762 35.9272 135.441 36.1126 135.214C36.399 134.852 36.6687 134.498 36.9552 134.135L37.031 134.026L37.1827 133.79C37.3933 133.478 37.5871 133.166 37.7724 132.846L37.9325 132.568L38.0337 132.391C38.2106 132.063 38.3707 131.742 38.5139 131.414L38.5644 131.287C38.7414 131.001 38.8257 130.74 38.9437 130.445Z" fill="black"/>
<path d="M3.82435 136.95C3.82435 136.688 3.74852 136.419 3.72325 136.158C3.72325 136.065 3.72325 135.981 3.72325 135.888C3.72325 135.795 3.72325 135.534 3.72325 135.357V135.037C3.72325 134.877 3.72325 134.717 3.72325 134.557C3.72325 134.397 3.72325 134.329 3.72325 134.211C3.72325 134.093 3.72325 133.899 3.72325 133.748C3.72325 133.596 3.72329 133.512 3.76542 133.394C3.80755 133.276 3.76538 133.091 3.83279 132.93C3.90019 132.77 3.83284 132.695 3.89183 132.577L3.99293 132.122C3.99293 132.004 4.05189 131.877 4.07717 131.759L4.20358 131.304L4.30469 130.95L4.46473 130.487C4.46473 130.377 4.54057 130.276 4.57427 130.167C4.70066 129.83 4.84389 129.493 4.98713 129.156L5.08824 128.953C5.22306 128.658 5.3663 128.372 5.51797 128.111C5.51797 128.035 5.58538 127.968 5.62751 127.892C5.79603 127.58 5.97299 127.277 6.16678 126.965C6.16678 126.914 6.23419 126.864 6.26789 126.805C6.42517 126.552 6.59367 126.299 6.77343 126.046L6.95044 125.785C7.14424 125.507 7.34644 125.238 7.56551 124.943C7.59006 124.913 7.61255 124.882 7.63289 124.85C7.86881 124.555 8.12159 124.26 8.37437 124.007C8.43446 123.93 8.49916 123.857 8.56815 123.788C8.82093 123.493 9.09056 123.215 9.41074 122.946L9.49498 122.853C9.79831 122.55 10.1102 122.263 10.4303 121.968L10.641 121.783C11.0117 121.454 11.3909 121.126 11.7869 120.814L11.9638 120.679C12.3767 120.359 12.8064 120.039 13.2361 119.735C13.8316 119.32 14.4466 118.932 15.0814 118.573L15.2584 118.472C15.865 118.126 16.4886 117.797 17.1373 117.486L17.3311 117.393C17.7693 117.191 18.1737 116.997 18.6624 116.812L18.9321 116.711C19.4039 116.525 19.8842 116.348 20.3644 116.188C21.867 115.681 23.4125 115.312 24.9818 115.084C25.6053 115 26.2205 114.95 26.8272 114.916H27.1811C27.7709 114.916 28.3438 114.916 28.9168 114.916H29.237C29.7846 114.916 30.3324 115 30.8716 115.076H30.9979C31.5541 115.16 32.0934 115.278 32.6242 115.405L32.9697 115.497C33.4331 115.624 33.8881 115.758 34.3262 115.918C34.7308 116.069 35.1272 116.241 35.5142 116.432L36.1546 116.744L32.3124 114.655L31.8237 114.402L31.6721 114.343C31.2851 114.151 30.8885 113.98 30.484 113.829C30.0458 113.669 29.5908 113.534 29.1274 113.408C29.0758 113.386 29.0222 113.369 28.9674 113.357L28.7819 113.315C28.2511 113.189 27.7119 113.071 27.1558 112.986H27.0294C26.4901 112.91 25.9425 112.86 25.3948 112.826H25.0746C24.5016 112.826 23.9286 112.826 23.3388 112.826H22.9849C22.3782 112.826 21.7632 112.91 21.1481 112.995C19.576 113.222 18.0277 113.592 16.5223 114.098C16.042 114.259 15.5617 114.436 15.0898 114.621L14.8202 114.722C14.3736 114.907 13.9271 115.101 13.489 115.303L13.3879 115.346C13.3588 115.366 13.3277 115.383 13.2951 115.396C12.6547 115.708 12.0228 116.036 11.4161 116.382L11.2392 116.483C10.6073 116.845 9.99212 117.233 9.40231 117.646C8.96416 117.949 8.55971 118.269 8.12999 118.59L7.95307 118.724C7.55706 119.036 7.1779 119.365 6.80716 119.693L6.70605 119.778L6.59651 119.879C6.27633 120.174 5.96459 120.46 5.66968 120.763L5.57701 120.856C5.29895 121.143 5.03775 121.421 4.73442 121.699L4.61644 121.817L4.54064 121.918C4.28786 122.204 4.03508 122.499 3.79915 122.76C3.77881 122.793 3.75623 122.824 3.73168 122.853C3.52103 123.131 3.3104 123.401 3.1166 123.696L3.02393 123.822C3.02393 123.864 2.96497 123.906 2.93969 123.957C2.75994 124.21 2.59144 124.462 2.43416 124.715L2.33295 124.875C2.13915 125.187 1.9623 125.49 1.79378 125.802C1.79656 125.827 1.79656 125.853 1.79378 125.878L1.72631 126.021C1.57464 126.308 1.43139 126.594 1.29658 126.864C1.26222 126.93 1.2313 126.997 1.2039 127.066C1.05224 127.403 0.908997 127.74 0.782608 128.077C0.785964 128.105 0.785964 128.133 0.782608 128.161L0.706804 128.389C0.656248 128.549 0.597222 128.709 0.555092 128.861C0.512963 129.012 0.479255 129.097 0.445551 129.215L0.319245 129.67C0.319245 129.796 0.260181 129.914 0.234903 130.032C0.209625 130.15 0.167508 130.335 0.14223 130.487C0.116953 130.639 0.0917119 130.723 0.07486 130.841C0.0580082 130.959 0.0243415 131.153 0.00748971 131.304C-0.00936213 131.456 0.00748971 131.54 0.00748971 131.658C0.00748971 131.776 0.00748971 131.97 0.00748971 132.122C0.00748971 132.273 0.00748971 132.349 0.00748971 132.467C0.00748971 132.585 0.00748971 132.787 0.00748971 132.947V133.267C0.00748971 133.444 0.00748971 133.621 0.00748971 133.798C0.00748971 133.975 0.00748971 133.975 0.00748971 134.068C0.00748971 134.329 0.066467 134.599 0.108597 134.86C0.372504 136.494 1.02565 138.04 2.01286 139.368C3.01158 140.682 4.28178 141.765 5.73705 142.544L9.57932 144.634C8.08305 143.896 6.782 142.816 5.782 141.481C4.782 140.145 4.11123 138.593 3.82435 136.95V136.95Z" fill="black"/>
<path d="M41.7669 124.353C42.4326 128.313 41.0171 132.686 37.8068 136.655C34.5047 140.638 30.1391 143.601 25.2184 145.199C23.7319 145.697 22.2035 146.061 20.6516 146.286C12.0994 147.49 4.95418 143.758 3.79983 136.95C2.46011 128.928 9.88325 119.575 20.3482 116.104C21.8508 115.597 23.3964 115.228 24.9657 115C28.1024 114.509 31.3118 114.798 34.31 115.843C38.4724 117.368 41.1097 120.393 41.7669 124.353ZM36.2058 135.189C38.8937 131.86 40.0818 128.271 39.5762 125.078C39.0707 121.884 36.8547 119.432 33.4001 118.143C30.6932 117.214 27.7989 116.968 24.9741 117.427C23.5427 117.634 22.1327 117.97 20.7612 118.43C11.4927 121.497 4.9204 129.476 6.04105 136.208C6.98475 141.896 13.1357 144.904 20.5926 143.859C22.0245 143.653 23.4346 143.318 24.8056 142.856C29.246 141.418 33.1914 138.758 36.189 135.18" fill="white"/>
<path d="M36.2058 135.189C38.8937 131.86 40.0818 128.271 39.5762 125.078C39.0707 121.884 36.8547 119.432 33.4001 118.143C30.6932 117.214 27.7989 116.968 24.9741 117.427C23.5427 117.634 22.1327 117.97 20.7612 118.43C11.4927 121.497 4.9204 129.476 6.04105 136.208C6.98475 141.896 13.1357 144.904 20.5926 143.859C22.0245 143.653 23.4346 143.318 24.8056 142.856C29.246 141.418 33.1914 138.758 36.189 135.18M41.7669 124.353C42.4326 128.313 41.0171 132.686 37.8068 136.655C34.5047 140.638 30.1391 143.601 25.2184 145.199C23.7319 145.697 22.2035 146.061 20.6516 146.286C12.0994 147.49 4.95418 143.758 3.79983 136.95C2.46011 128.928 9.88325 119.575 20.3482 116.104C21.8508 115.597 23.3964 115.228 24.9657 115C28.1024 114.509 31.3118 114.798 34.31 115.843C38.4724 117.368 41.1097 120.393 41.7669 124.353Z" stroke="black" stroke-miterlimit="10"/>
<path d="M62.7893 147.238L55.9307 140.068L60.4301 126.089L67.2888 133.251L62.7893 147.238Z" fill="black"/>
<path d="M49.2406 144.912L42.3818 137.75L55.9308 140.067L62.7894 147.238L49.2406 144.912Z" fill="black"/>
<path d="M53.7395 130.934L46.8809 123.764L60.4297 126.089L67.2885 133.251L53.7395 130.934Z" fill="#B4B4B4"/>
<path d="M49.2406 144.913L42.3818 137.751L46.8814 123.764L53.74 130.934L49.2406 144.913Z" fill="#828282"/>
<path d="M53.3604 130.251L68.0383 132.779L63.1597 147.945L48.4902 145.418L53.3604 130.251ZM62.7889 147.238L67.2884 133.259L53.7395 130.933L49.2401 144.912L62.7889 147.238Z" fill="black"/>
<path d="M67.2886 133.251L62.7891 147.238L49.2402 144.912L53.7397 130.934L67.2886 133.251Z" fill="white"/>
<path d="M48.4906 145.41L41.6318 138.239L46.5105 123.081L53.3692 130.251L48.4906 145.41Z" fill="black"/>
<path d="M53.3694 130.251L46.5107 123.081L61.1802 125.6L68.0389 132.771L53.3694 130.251Z" fill="black"/>
</svg>
